<svg width="40" height="44" viewBox="0 0 40 44" fill="none" xmlns="http://www.w3.org/2000/svg">
<path d="M37.54 29.6112V5.992C37.54 5.71194 37.4136 5.44334 37.1885 5.2453C36.9635 5.04726 36.6583 4.936 36.34 4.936H3.65999C3.34173 4.936 3.03651 5.04726 2.81146 5.2453C2.58642 5.44334 2.45999 5.71194 2.45999 5.992V35.208C2.45997 35.4262 2.53677 35.6391 2.67984 35.8173C2.82291 35.9956 3.02522 36.1304 3.25894 36.2034C3.49267 36.2763 3.74632 36.2837 3.98504 36.2246C4.22375 36.1655 4.43578 36.0428 4.59199 35.8733L9.39199 30.6672H36.34C36.6583 30.6672 36.9635 30.5559 37.1885 30.3579C37.4136 30.1599 37.54 29.8913 37.54 29.6112ZM35.14 28.5552H8.79999C8.62139 28.5552 8.44504 28.5903 8.28381 28.6579C8.12257 28.7255 7.98051 28.8239 7.86799 28.9459L4.85999 32.216V7.048H35.14V28.5552Z" fill="#564F4F"/>
<path d="M21.2 15.7318H18.8V24.6374H21.2V15.7318Z" fill="#564F4F"/>
<path d="M21.2 11.1559H18.8V13.7255H21.2V11.1559Z" fill="#564F4F"/>
</svg>
