<svg width="436" height="478" viewBox="0 0 436 478" fill="none" xmlns="http://www.w3.org/2000/svg">
<g clip-path="url(#clip0)">
<path d="M217.89 0L0 112.99V302.85C0 346.41 31.08 381.88 60.16 400.55C86.83 417.67 116.11 430.12 144.42 442.16C161.46 449.41 179.08 456.9 195.77 465.28C201.01 467.91 214.22 475.06 214.36 475.13L217.89 477.04L221.42 475.13C221.55 475.06 234.76 467.91 240.01 465.28C256.7 456.9 274.32 449.41 291.36 442.16C319.67 430.12 348.94 417.67 375.62 400.55C404.7 381.88 435.78 346.41 435.78 302.85V112.99L217.89 0Z" fill="#F1E4B8"/>
<path d="M233.667 224H206.333H179V279H233.667C248.762 279 261 266.687 261 251.5C261 236.313 248.762 224 233.667 224ZM207.244 277.167V225.833C221.334 225.833 232.573 237.325 232.573 251.5C232.573 265.675 221.334 277.167 207.244 277.167Z" fill="#B2422A"/>
<path fill-rule="evenodd" clip-rule="evenodd" d="M221.448 231.73C220.316 232.157 219.058 232.328 218.112 233.163C217.512 233.686 216.792 233.951 216.049 234.238C215.905 234.294 215.765 234.363 215.621 234.428C215.679 234.252 215.727 234.062 215.751 233.858C215.789 233.524 215.588 233.163 215.9 232.857C218.218 231.73 218.218 231.73 219.029 229.686C219.202 229.617 219.399 229.533 219.6 229.464C219.802 229.389 220.028 229.366 220.215 229.264C220.527 229.097 220.843 228.921 221.107 228.69C221.693 228.18 221.755 227.382 221.285 226.798C220.92 226.344 220.479 225.996 219.864 225.918C219.514 225.871 219.164 225.843 218.746 225.797C218.655 225.431 218.597 225.092 218.487 224.773C218.136 223.762 217.431 223.354 216.322 223.47C215.9 223.516 215.535 223.869 215.045 223.683C214.647 223.09 214.09 222.691 213.308 222.608C212.353 222.506 211.59 222.905 211.21 223.744C210.889 224.467 210.721 225.204 210.87 225.992C210.946 226.395 211.023 226.803 211.105 227.22C210.447 228.064 210.212 228.995 210.217 230.001C210.222 230.419 210.154 230.836 210.078 231.248C209.962 231.874 209.713 232.44 209.175 232.898C208.758 232.236 208.911 231.545 208.902 230.882C208.892 229.904 208.974 228.921 208.878 227.952C208.652 225.709 209.382 223.841 211.018 222.274C211.273 222.033 211.518 221.769 211.758 221.505C211.863 221.393 211.81 221.018 211.662 220.934C211.546 220.87 211.388 220.8 211.268 220.814C211.062 220.846 210.826 220.902 210.673 221.023C210.226 221.37 209.794 221.741 209.386 222.13C209.079 222.422 208.825 222.761 208.542 223.071C208.513 223.099 208.417 223.099 208.369 223.076C208.307 223.044 208.22 222.979 208.22 222.932C208.22 222.594 208.191 222.237 208.263 221.908C208.638 220.304 209.646 219.567 211.354 219.604C211.57 219.609 211.786 219.627 212.002 219.65C213.101 219.771 214.162 219.562 215.213 219.312C216.298 219.057 217.306 218.57 217.964 217.731C218.568 216.962 219.125 216.146 219.706 215.349C219.946 215.02 220.061 214.579 220.119 214.176C220.2 213.606 220.378 213.115 220.738 212.642C221.52 211.613 221.712 210.329 222.221 209.179C222.355 208.878 222.379 208.474 222.303 208.15C222.144 207.487 222.341 206.936 222.586 206.333C223.263 204.683 223.061 203.051 222.336 201.456C222.207 201.164 221.707 200.919 221.424 201.025C220.292 201.452 219.034 201.623 218.088 202.458C217.488 202.982 216.768 203.246 216.025 203.538C214.897 203.978 213.879 204.673 212.809 205.244C211.494 205.939 210.572 207 209.905 208.252C209.54 208.938 209.156 209.592 208.671 210.208C207.515 211.678 207.159 213.346 207.539 215.159C207.611 215.502 207.731 215.84 207.764 216.183C207.827 216.804 207.879 217.435 207.86 218.061C207.846 218.7 207.572 219.275 207.27 219.841C207.188 219.993 207.102 220.068 206.723 219.975C206.334 219.59 206.132 218.909 205.782 218.32C205.259 217.449 205.062 216.498 205.062 215.506C205.062 215.02 205.129 214.533 205.134 214.046C205.144 212.934 205.153 211.817 205.129 210.699C205.115 210.134 204.908 209.601 204.577 209.133C204.462 208.966 204.294 208.818 204.116 208.711C204.016 208.651 203.828 208.655 203.713 208.702C203.598 208.753 203.444 208.887 203.444 208.989C203.44 209.471 203.497 209.949 203.502 210.435C203.516 211.256 203.675 212.099 203.051 213.096C202.499 211.817 201.832 210.764 201.414 209.592C201.155 208.855 201.025 208.108 201.217 207.33C201.332 206.857 201.419 206.37 201.448 205.883C201.462 205.707 201.333 205.434 201.189 205.359C201.049 205.29 200.723 205.364 200.613 205.485C199.936 206.24 199.461 207.084 199.489 208.131C199.504 208.544 199.451 208.957 199.432 209.369C199.456 209.369 199.475 209.364 199.499 209.364C199.475 209.378 199.456 209.392 199.432 209.406C199.441 209.517 199.456 209.633 199.451 209.745C199.451 209.759 199.331 209.791 199.326 209.782C199.211 209.601 199.293 209.49 199.432 209.402C199.432 209.397 199.432 209.388 199.432 209.383C199.432 209.378 199.432 209.374 199.432 209.364C199.307 209.378 199.163 209.415 199.091 209.36C198.136 208.637 197.459 207.571 196.197 207.232C196.082 207.204 195.99 207.047 195.918 206.931C195.77 206.69 195.664 206.426 195.501 206.194C194.92 205.369 194.152 204.738 193.269 204.247C192.842 204.011 192.4 204.168 192.218 204.65C191.853 205.638 191.594 206.657 191.57 207.714C191.555 208.326 191.704 208.952 191.219 209.504C191.075 209.666 191.147 210.041 191.176 210.31C191.258 211.094 191.579 211.789 192.026 212.442C192.391 212.966 192.813 213.462 193.072 214.032C193.571 215.126 194.469 215.766 195.477 216.359C196.576 217.004 197.665 216.994 198.789 216.494C199.249 216.29 199.681 216.035 200.128 215.808C200.56 215.594 200.949 215.669 201.337 215.938C201.884 216.318 202.316 216.777 202.513 217.402C202.878 218.552 203.512 219.572 204.208 220.554C205.206 221.973 205.801 223.54 206.051 225.213C206.276 226.729 206.387 228.268 206.516 229.797C206.545 230.136 206.454 230.488 206.377 230.826C206.348 230.938 206.204 231.081 206.094 231.1C205.979 231.118 205.815 231.026 205.719 230.938C205.062 230.312 204.793 229.533 204.846 228.657C204.875 228.166 204.98 227.684 204.995 227.197C205.038 225.667 204.649 224.249 203.488 223.178C202.744 222.497 202.177 221.695 201.548 220.939C201.184 220.503 200.829 220.054 200.296 219.794C199.326 219.331 198.366 218.844 197.363 218.459C196.811 218.246 196.322 218.014 195.909 217.602C195.246 216.934 194.406 216.517 193.547 216.155C192.098 215.548 191.32 215.965 191.109 217.425C191.071 217.699 191.071 217.982 191.023 218.26C190.835 219.382 191.066 220.485 191.176 221.542C191.085 221.644 191.051 221.713 190.994 221.736C190.864 221.792 190.72 221.811 190.591 221.875C190.067 222.121 189.914 222.385 190.043 222.854C190.159 223.257 190.307 223.651 190.451 224.045C190.571 224.369 190.787 224.689 190.807 225.018C190.898 226.492 191.757 227.438 192.967 228.212C193.437 228.513 193.941 228.898 194.195 229.366C194.901 230.669 196.173 231.383 197.248 232.296C197.809 232.778 198.539 232.903 199.288 232.843C199.941 232.792 200.569 232.62 201.15 232.314C201.654 232.046 202.158 231.767 202.681 231.526C203.363 231.211 203.752 231.267 204.251 231.754C204.654 232.152 205.028 232.574 205.417 232.991C205.777 233.371 205.959 233.816 205.878 234.335C205.777 234.957 205.676 235.573 205.551 236.19C205.532 236.282 205.379 236.352 205.244 236.472C204.856 235.874 204.496 235.276 204.092 234.706C203.982 234.544 203.78 234.419 203.593 234.335C203.488 234.289 203.3 234.317 203.195 234.382C203.094 234.447 202.984 234.6 202.993 234.711C203.008 234.915 203.065 235.128 203.161 235.309C203.646 236.245 203.881 237.223 203.992 238.22C204.14 238.656 204.227 239.091 204.275 239.527C204.356 240.283 204.025 241.085 203.804 241.794C203.723 242.058 202.984 243.616 203.06 243.796C202.508 242.517 201.841 241.465 201.424 240.292C201.165 239.555 201.035 238.809 201.227 238.03C201.342 237.557 201.428 237.07 201.457 236.584C201.472 236.407 201.342 236.134 201.198 236.06C201.059 235.99 200.733 236.064 200.622 236.185C199.945 236.941 199.47 237.784 199.499 238.832C199.513 239.244 199.461 239.657 199.441 240.069C199.465 240.069 199.485 240.065 199.509 240.065C199.485 240.079 199.465 240.093 199.441 240.107C199.451 240.218 199.465 240.334 199.461 240.445C199.461 240.459 199.341 240.491 199.336 240.482C199.221 240.301 199.302 240.19 199.441 240.102C199.441 240.097 199.441 240.088 199.441 240.083C199.441 240.079 199.441 240.074 199.441 240.065C199.317 240.079 199.173 240.116 199.101 240.06C198.145 239.337 197.469 238.271 196.206 237.933C196.091 237.905 196 237.747 195.928 237.631C195.779 237.39 195.674 237.126 195.51 236.894C194.93 236.069 194.162 235.439 193.279 234.947C192.851 234.711 192.41 234.869 192.227 235.351C191.863 236.338 191.603 237.358 191.579 238.415C191.565 239.026 191.714 239.652 191.229 240.204C191.085 240.366 191.157 240.742 191.186 241.01C191.267 241.794 191.589 242.489 192.035 243.143C192.4 243.667 192.823 244.163 193.082 244.733C193.581 245.827 194.478 246.466 195.486 247.06C196.586 247.704 197.675 247.695 198.798 247.194C199.259 246.995 199.691 246.735 200.137 246.508C200.569 246.295 200.958 246.369 201.347 246.638C201.894 247.018 202.326 247.477 202.523 248.103C202.888 249.252 203.521 250.272 204.217 251.255C205.215 252.673 205.811 254.24 206.06 255.913C206.286 257.429 206.396 258.968 206.526 260.498C206.555 260.836 206.463 261.188 206.387 261.527C206.358 261.638 206.214 261.782 206.103 261.8C205.988 261.819 205.825 261.726 205.729 261.638C205.072 261.012 204.803 260.234 204.856 259.357C204.884 258.866 204.99 258.384 205.004 257.897C205.048 256.368 204.659 254.949 203.497 253.878C202.753 253.197 202.187 252.395 201.558 251.639C201.193 251.204 200.838 250.754 200.305 250.495C199.336 250.031 198.376 249.544 197.373 249.16C196.821 248.946 196.331 248.715 195.918 248.297C195.256 247.63 194.416 247.213 193.557 246.851C192.107 246.244 191.33 246.661 191.119 248.121C191.08 248.395 191.08 248.677 191.032 248.956C190.845 250.077 191.075 251.181 191.186 252.237C191.095 252.339 191.061 252.409 191.003 252.432C190.874 252.488 190.73 252.506 190.6 252.571C190.077 252.817 189.924 253.081 190.053 253.549C190.168 253.953 190.317 254.347 190.461 254.741C190.581 255.065 190.797 255.385 190.816 255.714C190.907 257.188 191.767 258.134 192.976 258.908C193.447 259.209 193.95 259.594 194.205 260.062C194.91 261.365 196.182 262.078 197.258 262.992C197.819 263.474 198.549 263.599 199.297 263.539C199.95 263.488 200.579 263.316 201.16 263.01C201.664 262.741 202.168 262.463 202.691 262.222C203.372 261.907 203.761 261.963 204.26 262.449C204.664 262.848 205.038 263.27 205.427 263.687C205.787 264.067 205.969 264.512 205.887 265.031C205.787 265.652 205.686 266.269 205.561 266.885C205.542 266.978 205.388 267.048 205.254 267.168C204.865 266.57 204.505 265.972 204.102 265.402C203.992 265.24 203.79 265.115 203.603 265.031C203.497 264.985 203.31 265.013 203.204 265.078C203.104 265.142 202.993 265.3 203.003 265.407C203.017 265.611 203.075 265.824 203.171 266.005C203.656 266.941 203.891 267.919 204.001 268.916C204.664 270.872 204.251 272.805 203.416 274.677C203.416 274.696 203.416 274.719 203.416 274.742C203.44 275.127 203.718 277.426 204.678 276.93C204.803 276.865 204.918 276.773 205.028 276.685C205.072 276.583 205.11 276.481 205.148 276.379C205.729 274.905 206.315 273.329 207.236 272.007C207.217 271.915 207.193 271.822 207.217 271.743C207.721 270.139 208.268 268.554 208.58 266.895C208.652 266.505 208.955 266.153 209.175 265.801C209.314 265.578 209.727 265.467 209.943 265.611C210.543 266.023 211.21 266.269 211.911 266.468C212.631 266.677 213.346 266.626 214.057 266.477C215.06 266.264 215.636 265.597 215.751 264.568C215.789 264.234 215.588 263.872 215.9 263.566C218.218 262.44 218.218 262.44 219.029 260.396C219.202 260.326 219.399 260.243 219.6 260.173C219.802 260.099 220.028 260.076 220.215 259.974C220.527 259.807 220.843 259.631 221.107 259.399C221.693 258.889 221.755 258.092 221.285 257.508C220.92 257.054 220.479 256.706 219.864 256.627C219.514 256.581 219.164 256.553 218.746 256.507C218.655 256.14 218.597 255.802 218.487 255.482C218.136 254.472 217.431 254.064 216.322 254.18C215.9 254.226 215.535 254.578 215.045 254.393C214.647 253.8 214.09 253.401 213.308 253.317C212.353 253.215 211.59 253.614 211.21 254.453C210.889 255.176 210.721 255.913 210.87 256.701C210.946 257.105 211.023 257.513 211.105 257.93C210.447 258.773 210.212 259.705 210.217 260.711C210.222 261.128 210.154 261.545 210.078 261.958C209.962 262.584 209.713 263.149 209.175 263.608C208.758 262.945 208.911 262.255 208.902 261.592C208.892 260.614 208.974 259.631 208.878 258.662C208.652 256.423 209.382 254.55 211.018 252.984C211.273 252.743 211.518 252.478 211.758 252.214C211.863 252.103 211.81 251.728 211.662 251.644C211.546 251.579 211.388 251.51 211.268 251.524C211.062 251.556 210.826 251.612 210.673 251.732C210.226 252.08 209.794 252.451 209.386 252.84C209.079 253.132 208.825 253.47 208.542 253.781C208.513 253.809 208.417 253.809 208.369 253.786C208.307 253.753 208.22 253.688 208.22 253.642C208.22 253.304 208.191 252.947 208.263 252.618C208.638 251.014 209.646 250.277 211.354 250.314C211.57 250.318 211.786 250.337 212.002 250.36C213.101 250.481 214.162 250.272 215.213 250.022C216.298 249.767 217.306 249.28 217.964 248.441C218.568 247.672 219.125 246.856 219.706 246.058C219.946 245.729 220.061 245.289 220.119 244.886C220.2 244.316 220.378 243.824 220.738 243.351C221.52 242.322 221.712 241.038 222.221 239.889C222.355 239.587 222.379 239.184 222.303 238.86C222.144 238.197 222.341 237.645 222.586 237.043C223.263 235.392 223.061 233.761 222.336 232.166C222.226 231.874 221.731 231.624 221.448 231.73ZM215.962 217.597C214.839 218.32 213.61 218.64 212.262 218.441C211.906 218.39 211.542 218.371 211.186 218.306C211.086 218.288 210.999 218.144 210.932 218.042C210.908 218 210.951 217.894 210.994 217.852C211.532 217.351 212.18 217.004 212.909 216.967C213.975 216.906 215.06 216.828 216.082 217.235C216.039 217.374 216.044 217.546 215.962 217.597ZM220.056 203.57C220.253 203.19 220.608 202.94 221.002 202.768C221.088 202.731 221.319 202.815 221.357 202.898C221.784 203.816 221.717 204.766 221.544 205.786C221.386 206.041 221.232 206.351 221.016 206.62C220.786 206.912 220.435 207.01 220.066 206.973C219.946 206.959 219.754 206.875 219.735 206.792C219.495 205.689 219.519 204.599 220.056 203.57ZM221.059 208.706C221.026 209.545 220.709 210.069 220.018 210.231C219.404 210.375 218.746 210.361 218.103 210.389C217.992 210.394 217.824 210.273 217.776 210.171C217.733 210.074 217.762 209.874 217.839 209.805C218.108 209.578 218.381 209.332 218.698 209.198C219.418 208.901 220.2 208.873 221.059 208.706ZM218.208 204.075C218.266 204.057 218.343 204.117 218.429 204.145C218.372 204.826 218.328 205.517 218.252 206.203C218.199 206.722 217.935 207.116 217.344 207.39C217.138 206.648 217.152 205.902 217.109 205.165C217.085 204.683 217.517 204.279 218.208 204.075ZM216.855 211.863C217.829 211.756 218.799 211.529 219.788 211.576C219.994 212.22 219.61 212.54 219.207 212.823C219.039 212.938 218.823 213.036 218.616 213.059C217.767 213.156 216.917 213.23 216.063 213.291C215.953 213.295 215.789 213.189 215.727 213.091C215.669 212.999 215.665 212.818 215.717 212.73C215.986 212.303 216.317 211.923 216.855 211.863ZM215.113 205.299C215.237 205.137 215.583 205.007 215.669 205.105C215.756 205.202 215.876 205.309 215.895 205.42C215.977 206.032 216.063 206.648 216.097 207.265C216.121 207.742 216.092 208.233 215.727 208.623C215.612 208.549 215.444 208.502 215.405 208.41C215.175 207.761 214.949 207.112 214.767 206.449C214.642 206.022 214.849 205.647 215.113 205.299ZM215.285 214.765C216.207 214.658 217.133 214.57 218.06 214.482C218.29 214.459 218.549 214.63 218.53 214.793C218.511 214.927 218.492 215.075 218.41 215.177C218.285 215.335 218.132 215.557 217.959 215.585C216.831 215.757 215.693 215.808 214.585 215.451C214.532 215.432 214.498 215.363 214.455 215.316C214.594 214.936 214.925 214.806 215.285 214.765ZM212.967 206.402C213.106 206.273 213.442 206.347 213.485 206.537C213.836 208.016 214.201 209.49 214.508 210.973C214.575 211.297 214.479 211.659 214.402 211.993C214.364 212.169 214.201 212.322 213.975 212.66C213.447 211.214 213.02 210.051 212.602 208.878C212.506 208.618 212.42 208.354 212.367 208.085C212.242 207.422 212.463 206.861 212.967 206.402ZM210.85 209.369C210.865 209.318 210.942 209.263 211.004 209.244C211.057 209.225 211.134 209.244 211.186 209.272C211.249 209.3 211.321 209.346 211.345 209.402C212.002 210.852 212.588 212.331 212.502 213.958C212.487 214.232 212.458 214.501 212.434 214.751C212.266 214.936 212.132 215.094 211.983 215.238C211.935 215.279 211.834 215.316 211.791 215.298C211.681 215.242 211.498 215.154 211.503 215.08C211.575 213.685 211.042 212.373 210.903 211.01C210.841 210.458 210.687 209.921 210.85 209.369ZM208.844 212.878C208.863 212.674 208.926 212.47 209.012 212.28C209.06 212.178 209.194 212.048 209.3 212.034C209.406 212.021 209.598 212.118 209.636 212.211C210.198 213.606 210.385 215.02 209.833 216.457C209.737 216.563 209.66 216.735 209.554 216.753C209.454 216.772 209.238 216.661 209.218 216.568C208.926 215.363 208.715 214.134 208.844 212.878ZM193 206.282C193.072 206.059 193.509 206.004 193.73 206.161C194.147 206.463 194.469 206.843 194.656 207.297C194.982 208.08 195.179 208.892 195.122 209.745C195.117 209.814 195.074 209.879 195.05 209.939C194.925 209.986 194.771 210.106 194.69 210.069C193.015 209.309 192.439 208.006 193 206.282ZM193.168 211.223C193.994 211.256 194.685 211.511 195.242 212.109C195.482 212.364 195.602 212.734 195.414 212.813C195.232 212.887 195.016 212.966 194.829 212.943C193.643 212.804 193.331 212.479 193.168 211.223ZM198.39 214.922C198.155 215.061 197.896 215.2 197.632 215.256C197.061 215.377 196.504 215.247 195.861 215.029C195.774 214.973 195.592 214.867 195.424 214.742C195.386 214.714 195.371 214.63 195.376 214.579C195.381 214.514 195.405 214.412 195.448 214.389C196.48 213.903 197.488 213.865 198.438 214.584C198.491 214.621 198.462 214.881 198.39 214.922ZM198.597 212.846C198.481 212.966 198.366 212.938 198.222 212.841C197.478 212.345 197.08 211.64 196.859 210.82C196.662 210.088 196.782 209.263 197.061 209.318C197.627 209.434 197.79 209.939 198.021 210.338C198.443 211.056 198.606 211.863 198.765 212.586C198.669 212.739 198.64 212.799 198.597 212.846ZM200.651 213.726C200.459 213.675 200.185 213.606 200.113 213.467C199.859 212.98 199.84 212.447 199.888 211.914C199.878 211.914 199.864 211.914 199.854 211.909L199.917 211.793L199.893 211.863C199.893 211.882 199.893 211.895 199.888 211.914C200.013 211.937 200.181 211.942 200.224 212.011C200.464 212.429 200.675 212.86 200.877 213.295C200.982 213.518 200.843 213.777 200.651 213.726ZM200.44 222.158C200.44 222.107 200.521 222.015 200.565 222.015C200.68 222.015 200.853 222.01 200.905 222.079C201.644 223.039 202.086 224.091 201.841 225.324C201.779 225.649 201.923 226.02 201.558 226.307C201.409 226.191 201.189 226.103 201.117 225.95C200.541 224.749 200.411 223.465 200.44 222.158ZM197.68 219.975C197.689 219.929 197.939 219.859 198.035 219.901C198.222 219.984 198.443 220.095 198.534 220.258C198.769 220.68 198.985 221.12 199.115 221.574C199.225 221.964 199.283 222.404 199.221 222.798C199.12 223.47 199.432 224.165 199.11 224.824C198.961 224.768 198.793 224.759 198.741 224.68C197.833 223.234 197.368 221.681 197.68 219.975ZM193.759 217.847C193.874 217.796 194.037 217.722 194.123 217.764C195.208 218.306 195.88 219.145 196.058 220.323C196.115 220.721 196.149 221.12 196.192 221.514C196.206 221.514 196.226 221.514 196.24 221.514L196.192 221.542C196.192 221.546 196.192 221.551 196.192 221.551L196.086 221.602L196.192 221.542C196.192 221.532 196.192 221.523 196.187 221.514C195.99 221.505 195.736 221.542 195.645 221.44C194.733 220.452 194.061 219.331 193.715 218.037C193.701 217.982 193.725 217.866 193.759 217.847ZM192.583 219.164C193.221 219.21 193.245 219.799 193.519 220.133C193.787 220.457 194.046 220.795 194.248 221.162C194.469 221.57 195.021 221.829 194.872 222.409C194.43 222.548 194.032 222.395 193.639 222.246C193.067 222.028 192.722 221.607 192.563 221.036C192.395 220.429 192.386 219.827 192.583 219.164ZM191.819 224.202C191.661 224.068 191.613 223.841 191.771 223.558C192.501 223.632 193.288 223.669 194.056 223.799C194.541 223.883 195.054 224.026 195.213 224.634C194.392 225.014 193.523 224.949 192.683 224.782C192.371 224.722 192.083 224.434 191.819 224.202ZM194.214 227.531C193.528 227.443 193.058 227.039 192.794 226.432C192.765 226.363 192.904 226.135 192.952 226.14C194.31 226.228 195.645 226.145 196.984 225.876C197.301 225.816 197.67 225.982 197.853 226.015C198.064 226.135 198.145 226.154 198.184 226.21C198.256 226.307 198.361 226.427 198.352 226.529C198.342 226.645 198.246 226.798 198.141 226.859C196.917 227.545 195.592 227.702 194.214 227.531ZM195.976 229.445C195.875 229.376 195.779 229.232 195.779 229.125C195.779 229.014 195.875 228.833 195.971 228.801C197.128 228.43 198.289 228.064 199.456 227.725C199.945 227.582 200.445 227.554 200.977 228.017C199.878 228.597 198.937 229.088 197.997 229.589C197.286 229.969 196.614 229.895 195.976 229.445ZM202.456 230.21C201.731 230.65 201.001 231.086 200.257 231.508C199.667 231.842 199.029 231.832 198.4 231.67C198.323 231.633 198.251 231.61 198.198 231.563C198.145 231.522 198.083 231.457 198.078 231.401C198.073 231.281 198.054 231.086 198.121 231.044C198.961 230.521 199.801 229.992 200.68 229.524C201.189 229.25 201.769 229.172 202.336 229.436C202.46 229.491 202.595 229.589 202.652 229.7C202.753 229.909 202.643 230.094 202.456 230.21ZM203.521 228.147C203.492 228.226 203.324 228.263 203.214 228.291C203.166 228.296 203.065 228.226 203.056 228.175C202.854 227.382 202.676 226.585 202.998 225.788C203.027 225.709 203.18 225.677 203.272 225.621C203.334 225.677 203.416 225.714 203.43 225.774C203.67 226.553 203.857 227.345 203.521 228.147ZM193 236.992C193.072 236.769 193.509 236.713 193.73 236.871C194.147 237.172 194.469 237.552 194.656 238.007C194.982 238.79 195.179 239.601 195.122 240.454C195.117 240.519 195.074 240.589 195.05 240.649C194.925 240.695 194.771 240.816 194.69 240.779C193.015 240.018 192.439 238.716 193 236.992ZM193.168 241.933C193.994 241.965 194.685 242.22 195.242 242.818C195.482 243.073 195.602 243.444 195.414 243.523C195.232 243.597 195.016 243.676 194.829 243.653C193.643 243.514 193.331 243.189 193.168 241.933ZM198.39 245.632C198.155 245.771 197.896 245.91 197.632 245.966C197.061 246.086 196.504 245.956 195.861 245.739C195.774 245.683 195.592 245.576 195.424 245.451C195.386 245.423 195.371 245.34 195.376 245.289C195.381 245.219 195.405 245.122 195.448 245.099C196.48 244.612 197.488 244.575 198.438 245.294C198.491 245.331 198.462 245.59 198.39 245.632ZM198.597 243.551C198.481 243.671 198.366 243.643 198.222 243.546C197.478 243.05 197.08 242.345 196.859 241.525C196.662 240.793 196.782 239.967 197.061 240.028C197.627 240.144 197.79 240.649 198.021 241.048C198.443 241.766 198.606 242.573 198.765 243.296C198.669 243.449 198.64 243.504 198.597 243.551ZM200.651 244.431C200.459 244.38 200.185 244.311 200.113 244.172C199.859 243.685 199.84 243.152 199.888 242.619C199.878 242.619 199.864 242.619 199.854 242.614L199.917 242.498L199.893 242.568C199.893 242.586 199.893 242.6 199.888 242.619C200.013 242.642 200.181 242.647 200.224 242.716C200.464 243.133 200.675 243.565 200.877 244C200.982 244.227 200.843 244.487 200.651 244.431ZM200.44 252.868C200.44 252.817 200.521 252.724 200.565 252.724C200.68 252.724 200.853 252.72 200.905 252.789C201.644 253.749 202.086 254.801 201.841 256.034C201.779 256.358 201.923 256.729 201.558 257.017C201.409 256.901 201.189 256.813 201.117 256.66C200.541 255.459 200.411 254.175 200.44 252.868ZM197.68 250.685C197.689 250.638 197.939 250.569 198.035 250.61C198.222 250.694 198.443 250.805 198.534 250.967C198.769 251.389 198.985 251.83 199.115 252.284C199.225 252.673 199.283 253.114 199.221 253.508C199.12 254.18 199.432 254.875 199.11 255.533C198.961 255.478 198.793 255.468 198.741 255.39C197.833 253.943 197.368 252.39 197.68 250.685ZM193.759 248.557C193.874 248.506 194.037 248.432 194.123 248.473C195.208 249.016 195.88 249.855 196.058 251.032C196.115 251.431 196.149 251.829 196.192 252.224C196.206 252.224 196.226 252.224 196.24 252.224L196.192 252.251C196.192 252.256 196.192 252.261 196.192 252.261L196.086 252.312L196.192 252.251C196.192 252.242 196.192 252.233 196.187 252.224C195.99 252.214 195.736 252.251 195.645 252.149C194.733 251.162 194.061 250.04 193.715 248.747C193.701 248.691 193.725 248.571 193.759 248.557ZM192.583 249.873C193.221 249.92 193.245 250.508 193.519 250.842C193.787 251.167 194.046 251.505 194.248 251.871C194.469 252.279 195.021 252.539 194.872 253.118C194.43 253.257 194.032 253.104 193.639 252.956C193.067 252.738 192.722 252.316 192.563 251.746C192.395 251.139 192.386 250.532 192.583 249.873ZM191.819 254.912C191.661 254.778 191.613 254.55 191.771 254.268C192.501 254.342 193.288 254.379 194.056 254.509C194.541 254.592 195.054 254.736 195.213 255.343C194.392 255.723 193.523 255.658 192.683 255.491C192.371 255.431 192.083 255.144 191.819 254.912ZM194.214 258.24C193.528 258.152 193.058 257.749 192.794 257.142C192.765 257.072 192.904 256.845 192.952 256.85C194.31 256.938 195.645 256.854 196.984 256.585C197.301 256.525 197.67 256.692 197.853 256.725C198.064 256.845 198.145 256.864 198.184 256.919C198.256 257.017 198.361 257.137 198.352 257.239C198.342 257.355 198.246 257.508 198.141 257.568C196.917 258.254 195.592 258.412 194.214 258.24ZM195.976 260.155C195.875 260.085 195.779 259.941 195.779 259.835C195.779 259.724 195.875 259.543 195.971 259.51C197.128 259.14 198.289 258.773 199.456 258.435C199.945 258.291 200.445 258.263 200.977 258.727C199.878 259.306 198.937 259.798 197.997 260.298C197.286 260.674 196.614 260.604 195.976 260.155ZM202.456 260.915C201.731 261.355 201.001 261.791 200.257 262.213C199.667 262.547 199.029 262.537 198.4 262.375C198.323 262.338 198.251 262.315 198.198 262.268C198.145 262.227 198.083 262.162 198.078 262.106C198.073 261.986 198.054 261.791 198.121 261.749C198.961 261.225 199.801 260.697 200.68 260.229C201.189 259.955 201.769 259.877 202.336 260.141C202.46 260.196 202.595 260.294 202.652 260.405C202.753 260.618 202.643 260.804 202.456 260.915ZM203.521 258.857C203.492 258.936 203.324 258.977 203.214 259C203.166 259.005 203.065 258.936 203.056 258.885C202.854 258.092 202.676 257.295 202.998 256.497C203.027 256.419 203.18 256.386 203.272 256.33C203.334 256.386 203.416 256.423 203.43 256.483C203.67 257.262 203.857 258.055 203.521 258.857ZM217.748 258.718C218.184 258.263 218.693 257.897 219.36 257.865C219.552 257.856 219.768 257.93 219.936 258.022C220.018 258.069 220.018 258.254 220.052 258.365C220.028 258.44 220.032 258.523 219.989 258.555C219.389 259.084 218.693 259.33 217.882 259.228C217.834 259.223 217.767 259.144 217.757 259.089C217.733 258.968 217.68 258.783 217.748 258.718ZM214.906 257.925C215.122 257.517 215.405 256.803 215.991 256.266C216.14 256.127 216.322 256.006 216.514 255.923C216.629 255.872 216.816 255.867 216.912 255.927C217.004 255.983 217.061 256.159 217.052 256.275C217.004 256.771 216.74 257.183 216.457 257.587C216.217 257.93 216.005 258.291 215.765 258.634C215.487 259.033 215.06 259.195 214.897 258.973C214.729 258.732 214.69 258.472 214.906 257.925ZM216.404 260.317C216.764 260.247 217.205 260.442 217.306 260.706C217.407 260.975 217.253 261.425 216.999 261.624C216.888 261.708 216.783 261.805 216.658 261.874C215.972 262.255 215.247 262.537 214.46 262.635C214.191 262.667 213.903 262.584 213.653 262.556C213.577 262.389 213.509 262.278 213.481 262.157C213.466 262.102 213.5 262.018 213.543 261.967C214.258 261.031 215.247 260.544 216.404 260.317ZM212.386 255.186C212.55 254.717 213.058 254.43 213.553 254.523C213.975 254.601 214.292 255.181 214.177 255.668C214.157 255.733 214.133 255.797 214.057 256.062C213.989 256.182 213.841 256.493 213.658 256.785C213.5 257.044 213.226 257.123 212.933 257.077C212.641 257.03 212.415 256.891 212.324 256.59C212.17 256.113 212.223 255.649 212.386 255.186ZM211.604 259.376C211.748 258.88 212.113 258.579 212.617 258.421C212.857 258.347 213.226 258.569 213.241 258.82C213.255 259.019 213.289 259.237 213.226 259.418C212.981 260.136 212.593 260.78 211.974 261.267C211.873 261.346 211.714 261.346 211.566 261.388C211.383 260.711 211.412 260.034 211.604 259.376ZM211.201 264.229C212.223 263.743 213.269 263.636 214.316 264.15C214.513 264.248 214.666 264.442 214.585 264.66C214.513 264.836 214.369 265.064 214.205 265.115C213.274 265.411 212.358 265.258 211.542 264.989C211.383 264.925 211.302 264.915 211.254 264.869C211.162 264.776 211.038 264.67 211.028 264.558C211.023 264.456 211.105 264.276 211.201 264.229ZM218.208 234.785C218.266 234.767 218.343 234.827 218.429 234.855C218.372 235.536 218.328 236.227 218.252 236.913C218.199 237.432 217.935 237.826 217.344 238.099C217.138 237.358 217.152 236.611 217.109 235.874C217.085 235.392 217.517 234.989 218.208 234.785ZM215.669 235.814C215.756 235.911 215.876 236.018 215.895 236.129C215.977 236.741 216.063 237.358 216.097 237.974C216.121 238.452 216.092 238.943 215.727 239.332C215.612 239.258 215.444 239.212 215.405 239.119C215.175 238.47 214.949 237.821 214.767 237.158C214.647 236.732 214.853 236.356 215.117 236.009C215.237 235.851 215.583 235.717 215.669 235.814ZM217.748 228.008C218.184 227.554 218.693 227.188 219.36 227.155C219.552 227.146 219.768 227.22 219.936 227.313C220.018 227.359 220.018 227.545 220.052 227.656C220.028 227.73 220.032 227.813 219.989 227.846C219.389 228.374 218.693 228.62 217.882 228.518C217.834 228.513 217.767 228.435 217.757 228.379C217.733 228.258 217.68 228.078 217.748 228.008ZM214.906 227.215C215.122 226.808 215.405 226.094 215.991 225.556C216.14 225.417 216.322 225.296 216.514 225.213C216.629 225.162 216.816 225.157 216.912 225.218C217.004 225.273 217.061 225.449 217.052 225.565C217.004 226.061 216.74 226.474 216.457 226.877C216.217 227.22 216.005 227.582 215.765 227.925C215.487 228.323 215.06 228.486 214.897 228.263C214.729 228.022 214.69 227.762 214.906 227.215ZM216.404 229.607C216.764 229.538 217.205 229.732 217.306 229.997C217.407 230.266 217.253 230.715 216.999 230.915C216.888 230.998 216.783 231.095 216.658 231.165C215.972 231.545 215.247 231.828 214.46 231.925C214.191 231.957 213.903 231.874 213.653 231.846C213.577 231.679 213.509 231.568 213.481 231.448C213.466 231.392 213.5 231.309 213.543 231.258C214.258 230.326 215.247 229.834 216.404 229.607ZM212.386 224.476C212.55 224.008 213.058 223.72 213.553 223.813C213.975 223.892 214.292 224.471 214.177 224.958C214.157 225.023 214.133 225.088 214.057 225.352C213.989 225.473 213.841 225.783 213.658 226.075C213.5 226.335 213.226 226.414 212.933 226.367C212.641 226.321 212.415 226.182 212.324 225.88C212.17 225.408 212.223 224.939 212.386 224.476ZM211.604 228.666C211.748 228.17 212.113 227.869 212.617 227.711C212.857 227.637 213.226 227.86 213.241 228.11C213.255 228.309 213.289 228.527 213.226 228.708C212.981 229.427 212.593 230.071 211.974 230.558C211.873 230.636 211.714 230.636 211.566 230.678C211.383 230.001 211.412 229.329 211.604 228.666ZM211.201 233.52C212.223 233.033 213.269 232.926 214.316 233.441C214.513 233.538 214.666 233.733 214.585 233.951C214.513 234.127 214.369 234.354 214.205 234.405C213.274 234.702 212.358 234.549 211.542 234.28C211.383 234.215 211.302 234.206 211.254 234.159C211.162 234.067 211.038 233.96 211.028 233.849C211.023 233.747 211.105 233.566 211.201 233.52ZM214.407 242.702C214.369 242.879 214.205 243.031 213.98 243.37C213.452 241.924 213.025 240.76 212.607 239.587C212.511 239.328 212.425 239.064 212.372 238.795C212.238 238.132 212.458 237.571 212.967 237.112C213.106 236.982 213.442 237.056 213.485 237.246C213.836 238.725 214.201 240.199 214.508 241.683C214.58 242.007 214.484 242.369 214.407 242.702ZM207.563 245.854C207.635 246.197 207.755 246.536 207.788 246.879C207.851 247.5 207.903 248.13 207.884 248.756C207.87 249.396 207.596 249.971 207.294 250.536C207.212 250.689 207.126 250.763 206.747 250.671C206.358 250.286 206.156 249.605 205.806 249.016C205.283 248.144 205.086 247.194 205.086 246.202C205.086 246.068 205.096 245.929 205.105 245.79C205.12 245.748 205.139 245.706 205.153 245.669C205.595 244.547 206.041 243.37 206.636 242.285C206.953 241.386 207.308 240.491 207.587 239.578C207.62 239.476 207.678 239.407 207.75 239.351C208.076 238.308 208.379 237.26 208.585 236.18C208.657 235.791 208.959 235.439 209.18 235.086C209.319 234.864 209.732 234.753 209.948 234.896C210.548 235.309 211.215 235.555 211.916 235.754C212.252 235.851 212.583 235.888 212.914 235.888C212.885 235.902 212.861 235.921 212.833 235.935C211.518 236.63 210.596 237.691 209.929 238.943C209.564 239.629 209.18 240.283 208.695 240.899C207.539 242.373 207.188 244.047 207.563 245.854ZM209.833 247.171C209.737 247.278 209.66 247.449 209.554 247.468C209.454 247.486 209.238 247.375 209.218 247.282C208.926 246.068 208.715 244.839 208.844 243.588C208.863 243.384 208.926 243.18 209.012 242.99C209.06 242.888 209.194 242.758 209.3 242.744C209.406 242.73 209.598 242.828 209.636 242.92C210.198 244.316 210.385 245.729 209.833 247.171ZM210.85 240.079C210.865 240.028 210.942 239.972 211.004 239.954C211.057 239.935 211.134 239.954 211.186 239.981C211.249 240.009 211.321 240.056 211.345 240.111C212.002 241.562 212.588 243.041 212.502 244.668C212.487 244.941 212.458 245.21 212.434 245.46C212.266 245.646 212.132 245.803 211.983 245.947C211.935 245.989 211.834 246.026 211.791 246.007C211.681 245.952 211.498 245.864 211.503 245.79C211.575 244.394 211.042 243.082 210.903 241.72C210.841 241.168 210.687 240.63 210.85 240.079ZM215.962 248.307C214.839 249.03 213.61 249.35 212.262 249.15C211.906 249.099 211.542 249.081 211.186 249.016C211.086 248.997 210.999 248.854 210.932 248.752C210.908 248.71 210.951 248.603 210.994 248.562C211.532 248.061 212.18 247.713 212.909 247.676C213.975 247.616 215.06 247.537 216.082 247.945C216.039 248.079 216.044 248.256 215.962 248.307ZM218.405 245.882C218.28 246.04 218.127 246.262 217.954 246.29C216.826 246.462 215.689 246.513 214.58 246.156C214.527 246.137 214.493 246.068 214.45 246.021C214.594 245.646 214.925 245.516 215.285 245.474C216.207 245.368 217.133 245.28 218.06 245.192C218.29 245.168 218.549 245.34 218.53 245.502C218.506 245.627 218.487 245.78 218.405 245.882ZM219.212 243.532C219.044 243.648 218.828 243.745 218.621 243.769C217.772 243.866 216.922 243.94 216.068 244C215.957 244.005 215.794 243.898 215.732 243.801C215.674 243.708 215.669 243.527 215.722 243.439C215.986 243.018 216.322 242.633 216.86 242.573C217.834 242.466 218.804 242.239 219.792 242.285C219.999 242.93 219.615 243.245 219.212 243.532ZM220.018 240.941C219.404 241.085 218.746 241.071 218.103 241.099C217.992 241.103 217.824 240.983 217.776 240.881C217.733 240.783 217.762 240.584 217.839 240.514C218.108 240.287 218.381 240.042 218.698 239.907C219.418 239.606 220.2 239.578 221.059 239.416C221.026 240.255 220.709 240.779 220.018 240.941ZM221.544 236.491C221.386 236.746 221.232 237.056 221.016 237.325C220.786 237.617 220.435 237.715 220.066 237.678C219.946 237.664 219.754 237.58 219.735 237.497C219.495 236.394 219.524 235.309 220.056 234.28C220.253 233.9 220.608 233.649 221.002 233.478C221.088 233.441 221.319 233.524 221.357 233.608C221.784 234.521 221.717 235.476 221.544 236.491Z" fill="#B2422A"/>
<path d="M139.47 322.99C140.03 324.44 140.48 325.91 140.96 327.39C141.03 327.59 141.15 327.8 141.29 327.95C141.37 328.03 141.57 328.05 141.69 328.02C141.82 327.99 141.96 327.89 142.05 327.78C142.76 326.94 143.46 326.09 144.14 325.26C144.03 325.07 144 324.89 143.89 324.82C142.22 323.85 141.11 322.2 139.37 321.03C139.07 321.87 139.26 322.44 139.47 322.99Z" fill="#B2422A"/>
<path d="M313.64 281.84C313.91 283.15 314.11 284.33 314.56 285.59C314.76 286.14 315.25 286.23 315.12 285.65C314.89 284.54 314.89 283.5 314.71 282.46C314.48 281.15 314.29 279.31 314.13 277.95C314.06 277.32 313.42 277.6 313.29 278.18C313.05 279.37 313.4 280.66 313.64 281.84Z" fill="#B2422A"/>
<path d="M313.15 275.55C313.12 275.55 313.1 275.56 313.07 275.56C313.17 275.56 313.26 275.56 313.36 275.56C313.28 275.56 313.22 275.55 313.15 275.55Z" fill="#B2422A"/>
<path d="M317.34 274.68C317.3 274.68 317.25 274.69 317.2 274.69C317.27 274.69 317.33 274.69 317.4 274.69C317.38 274.68 317.36 274.68 317.34 274.68Z" fill="#B2422A"/>
<path d="M137.47 333.35C138.03 332.75 138.57 332.13 139.11 331.51C139.69 330.83 139.85 330.03 139.59 329.2C139.31 328.27 138.96 327.37 138.62 326.46C138.04 324.92 137.44 323.39 136.86 321.86C136.36 320.55 136.39 319.21 136.72 317.89C137.19 316.01 137.76 314.15 138.26 312.27C138.84 310.09 139.86 308.09 140.81 306.06C141.09 305.46 141.55 304.95 141.96 304.41C142.91 303.16 143.28 301.85 142.94 300.23C142.59 298.5 141.76 297.2 140.43 296.14C140.18 295.94 139.83 296 139.68 296.29C139.23 297.15 138.81 298.03 138.35 298.88C137.89 299.73 137.42 300.58 136.89 301.4C136.57 301.89 136.15 302.34 135.73 302.76C135.22 303.26 134.62 303.51 133.89 303.27C133.62 303.18 133.33 303.13 133.03 303.06C131.34 305.33 129.81 307.61 128.73 310.18C127.9 312.18 127.1 314.19 126 316.07C125.51 316.91 125.3 317.86 125.27 318.86C125.23 320.45 125.48 321.99 125.78 323.53C126 324.65 126.59 325.63 127.2 326.56C128.05 327.89 128.71 329.3 129.26 330.78C129.62 331.75 130.15 332.67 130.61 333.61C130.74 333.88 131 334.12 131.03 334.39C131.18 335.49 131.85 336.31 132.45 337.15C133.37 338.43 134.16 339.77 134.82 341.21C135.19 342.02 135.66 342.79 136.11 343.57C136.21 343.75 136.44 343.85 136.61 343.99C136.67 343.9 136.74 343.85 136.74 343.8C136.61 342.84 136.48 341.88 136.33 340.93C136.21 340.19 136.04 339.46 135.95 338.72C135.88 338.2 135.86 337.67 135.9 337.16C136.06 335.08 135.9 335.04 137.47 333.35ZM127.32 317.44C127.31 317.18 127.51 317.02 127.72 317C128.45 316.94 129.19 316.92 129.9 317.17C130.01 317.21 130.13 317.36 130.17 317.49C130.25 317.72 130.15 317.94 129.94 318.03C129.61 318.16 129.25 318.22 128.96 318.29C128.59 318.25 128.28 318.26 128 318.18C127.8 318.12 127.61 317.98 127.46 317.83C127.37 317.74 127.33 317.58 127.32 317.44ZM132.62 320.63C132.55 320.75 132.48 320.91 132.37 320.95C132.09 321.05 131.8 321.09 131.82 321.08C130.2 321.16 129.03 320.74 127.96 320.02C127.72 319.85 127.51 319.64 127.49 319.32C127.49 319.25 127.48 319.14 127.53 319.1C127.63 319.01 127.75 318.9 127.88 318.89C128.01 318.87 128.17 318.93 128.3 319C129.27 319.59 130.35 319.83 131.45 319.99C131.74 320.03 132.03 320.07 132.32 320.12C132.51 320.15 132.71 320.46 132.62 320.63Z" fill="#B2422A"/>
<path d="M187.84 416.61C187.95 416.61 188.06 416.6 188.18 416.59C188.05 416.6 187.92 416.61 187.81 416.61C187.82 416.61 187.83 416.61 187.84 416.61Z" fill="#B2422A"/>
<path d="M205.45 388.18C203.91 386.16 202.68 383.92 201.79 381.51C201.66 381.16 201.52 380.82 201.36 380.47C200.26 378.01 199.12 375.57 198.07 373.1C197.34 371.38 196.82 369.59 196.73 367.68C196.67 366.57 196.41 365.46 196.16 364.37C195.81 362.81 195.87 361.25 196 359.68C196.09 358.56 196.19 357.44 196.29 356.33C196.35 355.58 196.36 354.83 196.5 354.09C196.78 352.6 196.72 351.11 196.54 349.62C196.46 348.95 196.37 348.28 196.37 347.61C196.34 344.53 195.9 341.5 195.44 338.46C195.27 337.34 195.03 336.26 194.65 335.19C193.76 332.65 192.89 330.1 191.99 327.56C191.72 326.79 191.34 326.05 191.04 325.29C190.46 323.8 189.53 322.56 188.42 321.41C187.07 320.01 185.76 318.57 184.22 317.37C183.5 316.81 182.91 316.15 182.41 315.39C181.8 314.45 181.08 313.59 180.27 312.8C179.74 312.28 179.24 311.7 178.83 311.08C176.79 308.04 174.51 305.16 172.69 301.96C172.32 301.31 171.86 300.71 171.41 300.11C169.57 297.66 167.74 295.19 165.86 292.77C165.27 292.01 164.56 291.33 163.87 290.64C163.5 290.27 163.04 290.02 162.53 289.86C161.48 289.51 160.43 289.78 159.72 290.65C159.03 291.5 158.74 292.46 158.75 293.56C158.79 296 159.37 298.31 160.4 300.49C161.99 303.88 163.84 307.13 166.19 310.07C166.99 311.06 167.68 312.13 168.48 313.12C169.32 314.17 170.21 315.19 171.11 316.19C172.06 317.25 172.92 318.38 173.69 319.59C174.26 320.48 174.74 321.41 175.04 322.42C175.58 324.23 176.32 325.93 177.32 327.53C177.39 327.65 177.43 327.82 177.42 327.95C177.41 328.09 177.35 328.26 177.25 328.34C177.16 328.41 176.95 328.45 176.85 328.39C176.59 328.25 176.34 328.07 176.14 327.86C175.92 327.64 175.73 327.43 175.39 327.43C175.18 327.9 174.99 328.39 174.74 328.84C174.34 329.53 173.74 329.89 172.91 329.96C171.6 330.07 170.38 329.8 169.19 329.31C168.71 329.11 168.24 328.87 167.79 328.6C165.91 327.51 164.04 326.42 162.17 325.32C162.04 325.24 161.92 325.16 161.78 325.09C161.51 324.94 161.14 324.99 160.96 325.2C160.87 325.31 160.76 325.42 160.68 325.55C160 326.68 159 327.41 157.85 328.03C156.38 328.81 155.19 329.91 154.15 331.23C153.12 332.53 152.21 333.88 151.57 335.41C151.08 336.59 150.48 337.71 149.58 338.64C149.02 339.22 148.84 339.94 149 340.71C149.22 341.81 149.5 342.9 149.73 344C150 345.31 150.51 346.59 150.53 347.95C150.54 348.84 150.5 349.74 150.48 350.64C150.47 351.71 149.82 352.25 148.88 352.54C148.68 352.6 148.31 352.5 148.29 352.36C148.27 352.22 148.23 352.06 148.28 351.93C148.35 351.73 148.49 351.54 148.59 351.34C149.14 350.3 149.21 349.21 148.96 348.07C148.5 345.95 148.08 343.82 147.64 341.7C147.58 341.41 147.5 341.12 147.45 340.82C147.27 339.73 147.5 338.76 148.16 337.85C148.69 337.12 149.17 336.36 149.6 335.58C150.11 334.66 150.53 333.7 151.01 332.77C151.22 332.36 151.34 331.97 151.26 331.49C151.2 331.1 151.45 330.79 151.74 330.53C151.8 330.48 151.85 330.42 151.91 330.39C153.58 329.48 154.85 328.09 156.21 326.81C157.02 326.04 157.91 325.34 158.74 324.59C159.18 324.19 159.63 323.78 159.98 323.31C160.85 322.15 160.96 320.84 160.62 319.47C160.58 319.32 160.18 319.22 160.04 319.32C158.96 320.12 157.86 320.89 156.8 321.72C155.74 322.56 154.65 322.66 153.46 322.03C152.86 321.71 152.24 321.46 151.63 321.17C149.55 322.5 147.73 324.12 146.22 326.12C145.37 327.25 144.32 328.24 143.28 329.2C141.39 330.95 140.01 333.09 138.51 335.14C138.09 335.71 137.96 336.37 138.02 337.06C138.17 338.85 138.26 340.65 138.53 342.42C138.78 344.06 138.93 345.69 138.89 347.34C138.83 349.61 139.29 351.81 139.78 354C140.17 355.74 140.58 357.48 141.02 359.22C141.16 359.8 141.32 360.38 141.5 360.94C141.74 361.67 142.16 362.28 142.77 362.75C144.95 364.46 147.06 366.25 149.47 367.65C150.57 368.29 151.57 369.08 152.62 369.81C153.23 370.24 153.8 370.74 154.45 371.1C156.27 372.15 157.95 373.4 159.64 374.63C160.85 375.51 162 376.48 162.97 377.63C164.14 379.01 165.47 380.2 166.96 381.23C169.13 382.73 170.91 384.67 172.65 386.63C173.4 387.47 173.96 388.45 174.48 389.45C175.09 390.65 175.75 391.83 176.37 393.02C176.89 394.02 177.51 394.95 178.23 395.82C178.7 396.39 179.11 397.03 179.53 397.64C180.07 398.45 180.55 399.3 181.14 400.07C182.51 401.86 183.54 403.87 184.59 405.84C185.42 407.41 185.86 409.19 186.46 410.88C186.73 411.65 186.98 412.44 187.24 413.22C187.39 413.66 187.66 414.02 188.03 414.29C188.46 414.61 188.93 414.82 189.49 414.63C189.84 414.52 190.22 414.46 190.57 414.32C192.36 413.57 194.15 412.81 195.94 412.04C196.28 411.89 196.64 411.73 196.91 411.48C197.88 410.61 199.08 410.16 200.24 409.66C202.65 408.62 204.88 407.23 207.16 405.96C208.56 405.17 209.61 404 210.52 402.71C211.18 401.78 211.6 400.75 211.71 399.6C211.82 398.37 211.63 397.22 210.92 396.18C209.07 393.5 207.4 390.75 205.45 388.18ZM175.34 311.68C175.18 311.83 175.04 312.02 174.84 312.1C173.74 312.57 172.61 312.91 171.39 312.87C171.09 312.87 170.79 312.88 170.5 312.87C170.35 312.86 170.17 312.87 170.07 312.78C169.91 312.65 169.8 312.46 169.72 312.28C169.7 312.24 169.9 312.03 170.01 312.02C171.57 311.86 173.08 311.51 174.57 311.03C174.75 310.97 175 311.08 175.2 311.12C175.36 311.15 175.47 311.57 175.34 311.68ZM140.29 335.69C140.39 335.62 140.58 335.58 140.69 335.63C141.38 335.91 142.06 336.22 142.73 336.53C142.86 336.59 142.98 336.71 143.04 336.84C143.1 336.96 143.13 337.13 143.09 337.25C143.05 337.37 142.91 337.46 142.79 337.54C142.74 337.58 142.64 337.59 142.57 337.58C141.65 337.5 140.85 337.15 140.21 336.47C140.12 336.38 140.12 336.2 140.08 336.06C140.14 335.93 140.18 335.76 140.29 335.69ZM143.44 340.46C143.29 340.46 143.14 340.48 143 340.46C141.29 340.14 140.03 339.17 139.09 337.75C139.05 337.69 139.01 337.6 139.02 337.54C139.06 337.41 139.1 337.24 139.2 337.17C139.3 337.1 139.48 337.08 139.6 337.11C139.74 337.14 139.9 337.21 139.98 337.32C140.8 338.35 141.92 338.91 143.12 339.35C143.33 339.42 143.53 339.52 143.7 339.65C143.8 339.72 143.84 339.89 143.86 340.03C143.91 340.18 143.61 340.45 143.44 340.46ZM148.45 355.38C148.03 356.72 146.94 357.41 145.56 357.23C145.34 357.2 145.24 356.96 145.24 356.69C146.02 356.06 146.81 355.4 147.63 354.78C147.76 354.68 148.09 354.72 148.23 354.82C148.37 354.93 148.49 355.23 148.45 355.38ZM170.49 343.03C170.58 343 170.81 343.13 170.83 343.23C171 343.93 171.15 344.63 171.27 345.34C171.28 345.41 171.08 345.56 170.97 345.58C170.86 345.6 170.67 345.55 170.6 345.46C170.11 344.86 170.04 344.14 169.98 343.36C170.15 343.25 170.3 343.09 170.49 343.03ZM161.08 335.17C161.12 334.88 161.25 334.61 161.36 334.34C161.43 334.17 161.58 334.13 161.74 334.2C161.85 334.28 162.01 334.35 162.04 334.46C162.32 335.42 162.28 336.38 162.03 337.33C161.84 338.05 161.69 338.8 161.18 339.38C161.06 339.52 160.69 339.62 160.58 339.49C160.49 339.38 160.37 339.21 160.4 339.12C160.85 337.84 160.9 336.49 161.08 335.17ZM154.94 338.45C155.15 338.26 155.39 338.41 155.53 338.56C156.25 339.29 156.43 340.22 156.52 341.21C156.45 341.56 156.39 341.93 156.32 342.29C156.28 342.53 156.03 342.69 155.84 342.62C155.71 342.57 155.51 342.49 155.48 342.39C155.16 341.26 154.86 340.12 154.6 338.97C154.57 338.82 154.79 338.59 154.94 338.45ZM155.21 368.81C155.14 368.91 154.96 369.01 154.84 368.99C154.18 368.92 153.7 368.49 153.62 367.93C153.59 367.73 153.85 367.46 154.03 367.5C154.58 367.6 154.95 367.95 155.23 368.4C155.29 368.5 155.28 368.71 155.21 368.81ZM153.67 361.92C153.41 362.17 153.05 362.32 152.73 362.51C152.54 362.62 152.21 362.5 152.16 362.31C152.13 362.18 152.09 362.01 152.14 361.89C152.23 361.69 152.37 361.51 152.51 361.34C153.85 359.67 154.57 357.75 154.92 355.64C155.22 353.79 155.34 351.94 155.21 350.07C155.21 348.95 155.19 347.84 155.22 346.72C155.23 346.44 155.37 346.15 155.47 345.88C155.55 345.68 156.16 345.66 156.26 345.86C156.39 346.12 156.57 346.39 156.59 346.67C156.74 348.31 156.92 349.94 156.95 351.58C156.98 353.67 156.76 355.75 156.19 357.78C155.74 359.39 154.87 360.77 153.67 361.92ZM171.95 381.08C171.92 381.18 171.73 381.23 171.57 381.34C171.41 381.24 171.18 381.16 171.06 381C169.25 378.58 166.96 376.71 164.43 375.08C162.55 373.87 160.57 372.81 158.83 371.4C158.49 371.12 158.07 370.94 157.68 370.71C157.36 370.52 157.02 370.35 156.73 370.12C156.57 370 156.47 369.78 156.4 369.58C156.37 369.49 156.49 369.26 156.58 369.24C156.78 369.19 157.03 369.15 157.21 369.23C161.4 371.07 165.24 373.48 168.69 376.49C169.87 377.52 170.86 378.75 171.76 380.03C171.99 380.34 172.08 380.71 171.95 381.08ZM178.2 351.19C177.69 349.54 176.9 348.01 176.05 346.52C175.83 346.13 175.69 345.7 175.54 345.27C175.1 344 174.66 342.73 174.23 341.45C173.95 340.59 173.76 339.72 173.8 338.6C173.81 338.36 173.73 337.89 174.06 337.52C174.15 337.42 174.31 337.31 174.43 337.31C174.55 337.32 174.71 337.44 174.78 337.55C174.89 337.74 175 337.96 175 338.17C175.01 339.78 175.5 341.26 176.16 342.7C176.66 343.79 177.14 344.88 177.69 345.94C178.38 347.28 178.88 348.69 179.11 350.18C179.16 350.54 179.1 350.92 179.04 351.28C179.03 351.37 178.83 351.48 178.71 351.5C178.58 351.51 178.44 351.43 178.31 351.37C178.27 351.35 178.23 351.26 178.2 351.19ZM179.91 388.64C179.63 389.15 179.21 389.37 178.63 389.28C178.43 389.25 178.21 388.99 178.26 388.81C178.4 388.13 179.16 387.75 179.77 388.06C179.94 388.15 180.01 388.46 179.91 388.64ZM180.83 322.07C179.99 322.32 179.16 322.68 178.26 322.54C178.08 322.51 177.88 322.31 177.8 322.14C177.7 321.93 177.87 321.69 178.07 321.63C179.25 321.22 180.44 320.84 181.62 320.46C181.89 320.37 182.17 320.28 182.42 320.2C182.78 320.7 182.79 320.95 182.57 321.16C182.07 321.62 181.46 321.88 180.83 322.07ZM193.22 376.77C192.94 379.43 191.53 381.52 189.8 383.42C189.06 384.24 188.22 385.06 187.27 385.61C185.67 386.55 183.94 387.28 182.26 388.09C182.13 388.16 181.98 388.19 181.84 388.24C181.76 388.25 181.69 388.25 181.62 388.26C181.44 388.29 181.14 388.1 181.13 387.9C181.12 387.76 181.12 387.59 181.19 387.49C181.32 387.31 181.47 387.13 181.66 387.02C183.19 386.09 184.73 385.17 186.26 384.25C188.23 383.07 189.76 381.47 190.76 379.39C191.18 378.51 191.56 377.62 191.96 376.74C192.08 376.47 192.19 376.17 192.39 375.96C192.51 375.82 192.78 375.78 192.98 375.78C193.06 375.78 193.2 375.98 193.22 376.11C193.26 376.32 193.25 376.55 193.22 376.77ZM193.7 367.64C193.51 367.66 193.25 367.63 193.12 367.52C192.72 367.16 192.67 366.63 192.58 366.14C192.59 365.99 192.59 365.84 192.63 365.71C192.69 365.5 192.8 365.3 193.06 365.32C193.19 365.33 193.38 365.38 193.44 365.47C193.8 366.03 193.99 366.64 193.94 367.31C193.92 367.44 193.78 367.63 193.7 367.64ZM193.45 356.61C193.13 358.54 193.02 360.46 193.11 362.4C193.13 362.76 193.2 363.14 192.97 363.47C192.37 363.29 192.37 363.29 192.3 363.05C191.75 361.23 191.7 359.38 191.96 357.51C192.25 355.44 192.52 353.38 192.81 351.31C192.98 350.12 193.02 348.94 192.81 347.75C192.73 347.31 192.71 346.86 192.67 346.42C192.66 346.27 192.66 346.12 192.66 345.97C192.66 345.73 192.88 345.49 193.06 345.56C193.19 345.62 193.38 345.66 193.43 345.77C193.8 346.59 193.97 347.46 194.01 348.36C194.12 351.13 193.9 353.89 193.45 356.61Z" fill="#B2422A"/>
<path d="M162.03 288.1C161.98 288.1 161.93 288.11 161.89 288.11C161.97 288.11 162.06 288.11 162.14 288.11C162.1 288.11 162.06 288.1 162.03 288.1Z" fill="#B2422A"/>
<path d="M277.08 318.6C277.27 318.75 277.88 319.21 278.08 319.36C279 319.99 279.71 320.73 280.76 320.76C281.38 320.78 282.12 320.54 283.09 319.89C283.37 319.7 283.16 319.39 282.91 319.19C281.77 318.3 279.86 316.98 278.49 316.51C277.22 316.07 276.95 316.52 276.24 317.56C275.94 318.01 276.82 318.38 277.08 318.6Z" fill="#B2422A"/>
<path d="M296.75 293.79C296.71 293.79 296.67 293.8 296.63 293.8C296.79 293.79 296.95 293.81 297.1 293.83C296.99 293.82 296.87 293.79 296.75 293.79Z" fill="#B2422A"/>
<path d="M299.44 299.86C299.93 300.63 300.48 302.05 301.49 301.68C301.89 301.54 302.44 301.48 301.92 300.77C300.7 299.11 299.43 296.28 298.41 295.52C298.29 295.43 297.59 295.18 297.5 295.24C297.25 295.28 297.16 295.53 297.3 295.82C297.87 297.07 298.73 298.75 299.44 299.86Z" fill="#B2422A"/>
<path d="M289.81 323.24C289.99 323.5 290.23 323.64 290.55 323.66C292.89 322.06 295.29 319.85 296.79 317.92C296.53 315.62 295.84 313.41 295.2 311.19C295.05 310.67 294.79 310.23 294.1 309.92C293.12 310.74 292.14 311.44 291.31 312.29C289.82 313.79 288.19 315.07 286.31 316.04C285.71 316.35 285.12 316.67 284.54 317.01C284.24 317.19 283.96 317.41 283.6 317.66C284.62 318.7 285.72 319.47 286.77 320.3C287.89 321.16 288.98 322.06 289.81 323.24Z" fill="#B2422A"/>
<path d="M247.93 416.61C247.93 416.61 247.95 416.61 247.96 416.61C247.85 416.61 247.72 416.6 247.59 416.59C247.71 416.6 247.83 416.61 247.93 416.61Z" fill="#B2422A"/>
<path d="M273.75 288.1C273.71 288.1 273.68 288.11 273.65 288.11C273.73 288.11 273.82 288.11 273.9 288.11C273.84 288.11 273.79 288.1 273.75 288.1Z" fill="#B2422A"/>
<path d="M277.51 314.86C277.49 314.86 277.47 314.86 277.46 314.86C277.68 314.86 277.9 314.87 278.11 314.9C277.91 314.88 277.71 314.86 277.51 314.86Z" fill="#B2422A"/>
<path d="M291.64 325.26C292.32 326.09 293.02 326.94 293.73 327.78C293.82 327.89 293.95 327.99 294.09 328.02C294.21 328.05 294.41 328.03 294.49 327.95C294.64 327.79 294.75 327.59 294.82 327.39C295.3 325.92 295.75 324.44 296.31 322.99C296.52 322.44 296.7 321.87 296.42 321.03C294.68 322.21 293.57 323.86 291.9 324.82C291.79 324.89 291.75 325.07 291.64 325.26Z" fill="#B2422A"/>
<path d="M292.53 329.2C291.49 328.24 290.43 327.25 289.59 326.12C288.08 324.12 286.26 322.5 284.18 321.17C283.56 321.46 282.94 321.72 282.35 322.03C281.16 322.66 280.08 322.56 279.01 321.72C277.95 320.89 276.85 320.12 275.77 319.32C275.63 319.22 275.23 319.32 275.19 319.47C274.85 320.84 274.97 322.15 275.83 323.31C276.18 323.78 276.63 324.19 277.07 324.59C277.9 325.34 278.79 326.04 279.6 326.81C280.96 328.09 282.23 329.48 283.9 330.39C283.96 330.43 284.02 330.48 284.07 330.53C284.36 330.78 284.61 331.1 284.55 331.49C284.47 331.97 284.59 332.36 284.81 332.77C285.29 333.7 285.71 334.66 286.21 335.58C286.64 336.36 287.13 337.12 287.65 337.85C288.3 338.75 288.54 339.73 288.36 340.82C288.31 341.12 288.24 341.41 288.17 341.7C287.73 343.83 287.31 345.95 286.85 348.07C286.6 349.21 286.67 350.3 287.22 351.34C287.32 351.54 287.46 351.72 287.53 351.93C287.58 352.06 287.54 352.22 287.52 352.36C287.5 352.51 287.13 352.61 286.93 352.54C285.99 352.25 285.34 351.72 285.33 350.64C285.32 349.74 285.27 348.85 285.28 347.95C285.29 346.59 285.8 345.31 286.08 344C286.31 342.9 286.58 341.81 286.81 340.71C286.97 339.93 286.79 339.22 286.23 338.64C285.33 337.71 284.73 336.59 284.24 335.41C283.6 333.88 282.7 332.53 281.66 331.23C280.62 329.91 279.42 328.81 277.96 328.03C276.81 327.42 275.81 326.68 275.13 325.55C275.05 325.42 274.95 325.31 274.85 325.2C274.67 324.99 274.3 324.94 274.03 325.09C273.9 325.16 273.77 325.24 273.64 325.32C271.77 326.41 269.9 327.51 268.02 328.6C267.57 328.86 267.1 329.11 266.62 329.31C265.43 329.8 264.2 330.07 262.9 329.96C262.08 329.89 261.47 329.53 261.07 328.84C260.81 328.39 260.63 327.9 260.42 327.43C260.08 327.43 259.89 327.64 259.67 327.86C259.46 328.07 259.22 328.25 258.96 328.39C258.86 328.45 258.66 328.41 258.56 328.34C258.46 328.26 258.4 328.09 258.39 327.95C258.38 327.81 258.41 327.64 258.49 327.53C259.49 325.93 260.23 324.23 260.77 322.42C261.07 321.42 261.55 320.48 262.12 319.59C262.89 318.39 263.74 317.26 264.69 316.19C265.59 315.18 266.47 314.17 267.32 313.12C268.11 312.13 268.81 311.06 269.61 310.07C271.97 307.13 273.81 303.89 275.4 300.49C276.43 298.3 277.01 296 277.05 293.56C277.06 292.46 276.77 291.5 276.08 290.65C275.37 289.78 274.32 289.51 273.27 289.86C272.76 290.03 272.3 290.27 271.93 290.64C271.24 291.33 270.53 292 269.94 292.77C268.06 295.19 266.23 297.66 264.39 300.11C263.94 300.71 263.48 301.31 263.11 301.96C261.29 305.15 259.01 308.03 256.97 311.08C256.56 311.7 256.06 312.27 255.53 312.8C254.72 313.59 254 314.44 253.39 315.39C252.9 316.15 252.3 316.81 251.58 317.37C250.04 318.57 248.73 320.01 247.38 321.41C246.28 322.56 245.35 323.8 244.76 325.29C244.46 326.05 244.08 326.79 243.81 327.56C242.91 330.1 242.04 332.65 241.15 335.19C240.77 336.25 240.53 337.34 240.36 338.46C239.9 341.49 239.45 344.53 239.43 347.61C239.42 348.28 239.34 348.96 239.26 349.62C239.08 351.11 239.01 352.6 239.3 354.09C239.44 354.82 239.44 355.58 239.5 356.33C239.6 357.45 239.7 358.57 239.79 359.68C239.91 361.25 239.98 362.81 239.63 364.37C239.38 365.46 239.12 366.57 239.06 367.68C238.96 369.59 238.45 371.37 237.71 373.1C236.66 375.58 235.52 378.02 234.42 380.47C234.27 380.81 234.12 381.16 233.99 381.51C233.1 383.92 231.87 386.16 230.33 388.18C228.38 390.75 226.72 393.5 224.91 396.17C224.2 397.22 224 398.36 224.11 399.59C224.22 400.74 224.64 401.77 225.3 402.7C226.21 404 227.26 405.17 228.66 405.95C230.94 407.23 233.17 408.61 235.58 409.65C236.74 410.15 237.94 410.6 238.91 411.47C239.18 411.71 239.54 411.88 239.88 412.03C241.67 412.8 243.45 413.56 245.25 414.31C245.59 414.45 245.97 414.5 246.33 414.62C246.89 414.81 247.36 414.59 247.79 414.28C248.16 414.01 248.43 413.65 248.58 413.21C248.84 412.43 249.09 411.65 249.36 410.87C249.96 409.18 250.4 407.4 251.23 405.83C252.28 403.86 253.31 401.85 254.68 400.06C255.27 399.29 255.74 398.43 256.29 397.63C256.71 397.01 257.12 396.38 257.59 395.81C258.31 394.94 258.93 394.01 259.45 393.01C260.07 391.81 260.72 390.64 261.34 389.44C261.85 388.44 262.42 387.46 263.17 386.62C264.91 384.66 266.69 382.73 268.86 381.22C270.35 380.19 271.68 379 272.85 377.62C273.83 376.47 274.97 375.51 276.18 374.62C277.87 373.38 279.55 372.13 281.37 371.09C282.02 370.72 282.59 370.22 283.2 369.8C284.24 369.07 285.25 368.28 286.35 367.64C288.75 366.24 290.87 364.45 293.05 362.74C293.66 362.27 294.09 361.66 294.32 360.93C294.5 360.36 294.66 359.79 294.8 359.21C295.24 357.48 295.65 355.73 296.04 353.99C296.53 351.8 296.99 349.6 296.93 347.33C296.89 345.68 297.04 344.05 297.29 342.41C297.56 340.64 297.65 338.84 297.8 337.05C297.86 336.36 297.73 335.7 297.31 335.13C295.81 333.08 294.42 330.94 292.53 329.2ZM260.57 311.12C260.78 311.08 261.02 310.97 261.2 311.03C262.69 311.51 264.2 311.86 265.76 312.02C265.87 312.03 266.07 312.24 266.05 312.28C265.97 312.47 265.85 312.66 265.69 312.78C265.59 312.86 265.41 312.86 265.26 312.87C264.96 312.88 264.66 312.87 264.37 312.87C263.16 312.91 262.02 312.57 260.92 312.1C260.73 312.02 260.58 311.83 260.42 311.68C260.31 311.57 260.41 311.15 260.57 311.12ZM241.77 348.36C241.81 347.45 241.98 346.59 242.35 345.77C242.4 345.66 242.59 345.62 242.71 345.56C242.88 345.49 243.12 345.72 243.11 345.97C243.11 346.12 243.11 346.27 243.1 346.42C243.06 346.86 243.03 347.31 242.96 347.75C242.75 348.94 242.79 350.12 242.96 351.31C243.25 353.38 243.52 355.45 243.81 357.51C244.07 359.38 244.02 361.23 243.47 363.05C243.4 363.29 243.4 363.29 242.8 363.47C242.57 363.14 242.64 362.76 242.66 362.4C242.74 360.46 242.64 358.54 242.32 356.61C241.87 353.89 241.66 351.13 241.77 348.36ZM241.84 367.32C241.78 366.65 241.98 366.03 242.34 365.48C242.4 365.38 242.59 365.34 242.72 365.33C242.98 365.3 243.09 365.51 243.15 365.72C243.19 365.85 243.18 366 243.2 366.15C243.11 366.64 243.06 367.17 242.66 367.53C242.53 367.65 242.27 367.67 242.08 367.65C241.99 367.63 241.85 367.44 241.84 367.32ZM254.64 387.9C254.63 388.1 254.33 388.3 254.15 388.26C254.08 388.25 254 388.25 253.92 388.24C253.78 388.19 253.63 388.16 253.5 388.09C251.82 387.28 250.1 386.54 248.49 385.61C247.54 385.05 246.71 384.24 245.96 383.42C244.23 381.52 242.82 379.42 242.54 376.77C242.52 376.55 242.5 376.32 242.54 376.1C242.56 375.97 242.7 375.77 242.78 375.77C242.98 375.77 243.25 375.81 243.37 375.95C243.56 376.16 243.67 376.46 243.8 376.73C244.21 377.61 244.59 378.5 245.01 379.38C246.01 381.46 247.54 383.06 249.51 384.24C251.05 385.16 252.58 386.08 254.11 387.01C254.29 387.12 254.45 387.3 254.58 387.48C254.65 387.6 254.66 387.77 254.64 387.9ZM253.2 321.15C252.98 320.94 253 320.69 253.35 320.19C253.6 320.27 253.88 320.36 254.15 320.45C255.33 320.84 256.52 321.22 257.7 321.62C257.9 321.69 258.07 321.92 257.97 322.13C257.89 322.3 257.68 322.5 257.51 322.53C256.61 322.68 255.78 322.31 254.94 322.06C254.31 321.88 253.7 321.62 253.2 321.15ZM257.14 389.28C256.56 389.37 256.14 389.16 255.86 388.64C255.76 388.46 255.84 388.15 256 388.07C256.61 387.76 257.37 388.13 257.51 388.82C257.56 388.99 257.34 389.25 257.14 389.28ZM261.54 341.45C261.11 342.73 260.67 344 260.23 345.27C260.08 345.69 259.94 346.13 259.72 346.52C258.86 348.01 258.08 349.54 257.57 351.19C257.55 351.26 257.5 351.35 257.45 351.37C257.32 351.43 257.18 351.51 257.05 351.5C256.93 351.49 256.73 351.37 256.72 351.28C256.66 350.92 256.6 350.54 256.65 350.18C256.88 348.69 257.37 347.29 258.07 345.94C258.62 344.88 259.1 343.78 259.6 342.7C260.27 341.26 260.76 339.78 260.76 338.17C260.76 337.96 260.87 337.74 260.98 337.55C261.04 337.44 261.21 337.32 261.33 337.31C261.45 337.31 261.61 337.41 261.7 337.52C262.03 337.89 261.95 338.36 261.96 338.6C262.01 339.72 261.82 340.6 261.54 341.45ZM280.24 338.56C280.38 338.41 280.62 338.27 280.83 338.45C280.98 338.59 281.2 338.81 281.16 338.95C280.9 340.1 280.6 341.24 280.28 342.37C280.25 342.47 280.06 342.55 279.92 342.6C279.72 342.68 279.48 342.51 279.44 342.27C279.37 341.91 279.3 341.54 279.24 341.19C279.34 340.22 279.52 339.29 280.24 338.56ZM273.73 334.46C273.76 334.35 273.93 334.28 274.03 334.2C274.2 334.13 274.34 334.17 274.41 334.34C274.52 334.61 274.65 334.89 274.69 335.17C274.87 336.5 274.92 337.84 275.35 339.13C275.38 339.22 275.26 339.4 275.17 339.5C275.06 339.63 274.7 339.53 274.58 339.39C274.07 338.8 273.92 338.05 273.73 337.34C273.48 336.38 273.45 335.41 273.73 334.46ZM264.95 343.23C264.98 343.14 265.2 343.01 265.29 343.03C265.47 343.09 265.63 343.24 265.8 343.36C265.74 344.13 265.67 344.86 265.18 345.46C265.11 345.55 264.92 345.6 264.81 345.58C264.69 345.56 264.49 345.41 264.51 345.34C264.62 344.63 264.77 343.93 264.95 343.23ZM279.05 370.12C278.76 370.35 278.42 370.52 278.1 370.71C277.72 370.94 277.3 371.12 276.95 371.4C275.21 372.82 273.23 373.87 271.35 375.08C268.82 376.71 266.53 378.58 264.72 381C264.6 381.16 264.37 381.24 264.21 381.34C264.05 381.23 263.86 381.18 263.83 381.08C263.7 380.71 263.79 380.34 264.02 380.02C264.93 378.74 265.91 377.51 267.09 376.48C270.54 373.47 274.38 371.06 278.57 369.22C278.75 369.14 279 369.17 279.2 369.23C279.29 369.25 279.4 369.48 279.38 369.57C279.31 369.77 279.2 369.99 279.05 370.12ZM280.94 368.99C280.82 369 280.63 368.91 280.57 368.81C280.5 368.71 280.49 368.5 280.55 368.4C280.83 367.95 281.2 367.6 281.75 367.5C281.93 367.46 282.19 367.73 282.16 367.93C282.07 368.49 281.6 368.92 280.94 368.99ZM283.61 362.31C283.57 362.5 283.23 362.62 283.04 362.51C282.72 362.32 282.37 362.17 282.1 361.92C280.9 360.76 280.03 359.39 279.57 357.77C278.99 355.74 278.78 353.66 278.81 351.57C278.84 349.93 279.02 348.3 279.17 346.66C279.19 346.38 279.37 346.11 279.5 345.85C279.6 345.66 280.21 345.68 280.29 345.87C280.39 346.14 280.53 346.43 280.54 346.71C280.57 347.83 280.55 348.94 280.55 350.06C280.42 351.93 280.55 353.78 280.84 355.63C281.18 357.74 281.91 359.65 283.25 361.33C283.39 361.5 283.53 361.68 283.61 361.88C283.68 362.01 283.64 362.18 283.61 362.31ZM290.22 357.24C288.84 357.42 287.75 356.73 287.33 355.39C287.28 355.23 287.41 354.93 287.55 354.83C287.69 354.73 288.02 354.69 288.15 354.79C288.97 355.41 289.76 356.07 290.54 356.7C290.54 356.97 290.44 357.21 290.22 357.24ZM292.74 336.83C292.8 336.71 292.92 336.58 293.05 336.52C293.72 336.2 294.4 335.9 295.09 335.62C295.2 335.57 295.39 335.61 295.49 335.68C295.6 335.76 295.63 335.92 295.7 336.05C295.66 336.19 295.66 336.36 295.57 336.46C294.94 337.14 294.13 337.49 293.21 337.57C293.14 337.58 293.05 337.57 292.99 337.53C292.88 337.45 292.74 337.36 292.69 337.24C292.65 337.12 292.68 336.95 292.74 336.83ZM296.68 337.74C295.74 339.17 294.48 340.14 292.77 340.45C292.63 340.48 292.48 340.45 292.33 340.45C292.16 340.44 291.86 340.17 291.89 340C291.91 339.86 291.96 339.7 292.05 339.62C292.22 339.49 292.43 339.39 292.63 339.32C293.83 338.89 294.95 338.33 295.77 337.29C295.85 337.18 296.02 337.11 296.15 337.08C296.28 337.05 296.45 337.07 296.55 337.14C296.65 337.21 296.69 337.38 296.73 337.51C296.76 337.59 296.72 337.68 296.68 337.74Z" fill="#B2422A"/>
<path d="M315.25 289.18C315.05 288.47 314.95 287.75 314.19 287.32C313.72 287.06 313.57 286.48 313.43 285.98C313.05 284.54 312.62 283.1 312.39 281.63C312.22 280.54 311.84 279.45 312.09 278.3C312.11 278.21 311.97 278.02 311.87 277.99C311.75 277.95 311.57 277.98 311.45 278.05C310.42 278.61 309.78 279.53 309.28 280.54C308.78 281.55 308.5 282.64 308.28 283.74C307.75 286.4 307.59 289.08 307.94 291.77C308.13 293.26 308.19 294.74 308.02 296.24C307.85 297.73 307.72 299.22 307.63 300.71C307.53 302.27 307.5 303.84 307.43 305.41C307.4 306.1 307.53 306.74 307.8 307.37C308.74 309.57 309.64 311.78 310.6 313.97C310.83 314.51 311.07 315.09 311.7 315.39C311.83 315.13 311.99 314.88 312.1 314.61C312.83 312.79 313.8 311.13 315.08 309.63C315.99 308.57 316.39 307.29 316.38 305.9C316.35 302.61 316.38 299.32 316.24 296.04C316.11 293.73 315.88 291.42 315.25 289.18ZM314.83 307.49C314.75 307.6 314.66 307.73 314.55 307.79C314.43 307.86 314.27 307.85 314.07 307.88C313.17 307.78 312.25 307.58 311.44 307.03C311.32 306.95 311.2 306.84 311.14 306.72C311.08 306.6 311.05 306.42 311.1 306.31C311.15 306.2 311.31 306.12 311.44 306.08C311.57 306.04 311.74 306.03 311.87 306.07C312.83 306.41 313.85 306.56 314.73 307.12C314.89 307.21 314.93 307.35 314.83 307.49ZM315.03 305.53C315.02 305.58 314.93 305.66 314.87 305.67C314.07 305.76 313.42 305.52 313 304.8C312.97 304.74 312.94 304.62 312.97 304.59C313.07 304.49 313.19 304.41 313.3 304.33C313.37 304.32 313.45 304.27 313.51 304.29C314.07 304.47 314.63 304.68 315.02 305.15C315.09 305.22 315.05 305.4 315.03 305.53Z" fill="#B2422A"/>
<path d="M122.63 275.55C122.56 275.55 122.49 275.56 122.42 275.56C122.52 275.56 122.62 275.56 122.71 275.56C122.68 275.56 122.66 275.55 122.63 275.55Z" fill="#B2422A"/>
<path d="M130.43 303.08C131.43 302.28 131.7 301.94 132.03 301.09C132.14 300.8 132.11 300.51 131.97 300.24C131.94 300.17 131.89 300.12 131.85 300.06C131.31 299.36 130.77 298.66 130.23 297.96C130.19 297.92 130.1 297.91 129.86 297.84C129.81 298.07 129.74 298.22 129.75 298.35C129.92 299.89 130.1 301.43 130.29 302.96C130.29 303.01 130.38 303.04 130.43 303.08Z" fill="#B2422A"/>
<path d="M307.04 310.17C305.96 307.6 304.43 305.32 302.74 303.05C302.43 303.12 302.15 303.17 301.88 303.26C301.15 303.51 300.55 303.26 300.04 302.75C299.62 302.33 299.2 301.88 298.88 301.39C298.35 300.58 297.88 299.72 297.42 298.87C296.96 298.02 296.54 297.14 296.09 296.28C295.94 295.99 295.59 295.93 295.34 296.13C294 297.19 293.18 298.49 292.83 300.22C292.5 301.85 292.87 303.15 293.81 304.4C294.21 304.94 294.68 305.45 294.96 306.05C295.91 308.08 296.93 310.08 297.51 312.26C298.01 314.14 298.58 315.99 299.05 317.88C299.39 319.2 299.41 320.55 298.91 321.85C298.33 323.38 297.73 324.92 297.15 326.45C296.81 327.36 296.46 328.26 296.18 329.19C295.92 330.03 296.08 330.82 296.66 331.5C297.2 332.12 297.74 332.74 298.3 333.34C299.87 335.03 299.72 335.07 299.87 337.13C299.91 337.65 299.88 338.18 299.82 338.69C299.73 339.43 299.55 340.16 299.44 340.9C299.29 341.86 299.16 342.81 299.03 343.77C299.03 343.82 299.1 343.87 299.16 343.96C299.33 343.82 299.55 343.72 299.66 343.54C300.11 342.77 300.57 342 300.95 341.18C301.61 339.75 302.4 338.4 303.32 337.12C303.92 336.28 304.6 335.46 304.74 334.36C304.78 334.09 305.03 333.85 305.16 333.58C305.62 332.64 306.15 331.73 306.51 330.75C307.06 329.27 307.72 327.87 308.57 326.53C309.17 325.6 309.77 324.62 309.99 323.5C310.29 321.96 310.54 320.42 310.5 318.83C310.47 317.83 310.26 316.88 309.77 316.04C308.67 314.19 307.87 312.17 307.04 310.17ZM307.81 320.01C306.74 320.74 305.57 321.15 303.95 321.07C303.97 321.07 303.68 321.04 303.4 320.94C303.29 320.9 303.22 320.74 303.15 320.62C303.06 320.46 303.26 320.14 303.45 320.1C303.74 320.05 304.03 320.01 304.32 319.97C305.42 319.81 306.5 319.57 307.47 318.98C307.59 318.91 307.75 318.85 307.89 318.87C308.01 318.88 308.14 318.99 308.24 319.08C308.28 319.12 308.28 319.22 308.27 319.3C308.26 319.63 308.05 319.84 307.81 320.01ZM308.31 317.83C308.16 317.98 307.97 318.12 307.77 318.18C307.49 318.26 307.19 318.25 306.81 318.29C306.53 318.22 306.17 318.16 305.83 318.03C305.62 317.95 305.52 317.72 305.6 317.49C305.64 317.36 305.75 317.22 305.87 317.17C306.58 316.91 307.32 316.93 308.05 317C308.26 317.02 308.46 317.18 308.45 317.44C308.45 317.58 308.4 317.74 308.31 317.83Z" fill="#B2422A"/>
<path d="M134.28 301.67C135.3 302.04 135.84 300.62 136.33 299.85C137.04 298.74 137.89 297.06 138.47 295.81C138.6 295.52 138.52 295.27 138.27 295.23C138.18 295.17 137.48 295.42 137.36 295.51C136.34 296.27 135.08 299.09 133.85 300.76C133.34 301.47 133.89 301.53 134.28 301.67Z" fill="#B2422A"/>
<path d="M316.57 276.72C316.32 276.81 316.08 277.08 315.94 277.32C315.51 278.05 315.45 278.86 315.55 279.7C315.79 281.77 316.01 283.84 316.24 285.91C316.3 286.42 316.4 286.93 316.47 287.39C316.8 287.46 317 287.34 317.07 287.13C317.28 286.55 317.34 285.21 317.25 284.6C317.15 283.91 317.59 283.2 317.77 282.53C318.32 280.51 318.85 278.95 319.46 277.14C318.6 276.35 317.6 276.37 316.57 276.72Z" fill="#B2422A"/>
<path d="M139.02 293.79C138.9 293.79 138.78 293.81 138.66 293.83C138.82 293.81 138.98 293.79 139.13 293.8C139.1 293.8 139.06 293.79 139.02 293.79Z" fill="#B2422A"/>
<path d="M158.26 314.86C158.06 314.86 157.86 314.88 157.66 314.91C157.88 314.88 158.09 314.86 158.31 314.87C158.3 314.87 158.28 314.86 158.26 314.86Z" fill="#B2422A"/>
<path d="M121.21 285.59C121.67 284.32 121.86 283.15 122.13 281.84C122.37 280.66 122.72 279.38 122.47 278.18C122.35 277.6 121.71 277.32 121.63 277.95C121.47 279.31 121.27 281.15 121.05 282.46C120.87 283.51 120.88 284.54 120.64 285.65C120.52 286.23 121.01 286.15 121.21 285.59Z" fill="#B2422A"/>
<path d="M155.01 320.76C156.06 320.73 156.77 319.98 157.69 319.36C157.89 319.22 158.5 318.76 158.69 318.6C158.96 318.38 159.83 318.01 159.53 317.56C158.82 316.52 158.55 316.07 157.28 316.51C155.91 316.99 154 318.31 152.86 319.19C152.61 319.38 152.4 319.7 152.68 319.89C153.65 320.55 154.39 320.78 155.01 320.76Z" fill="#B2422A"/>
<path d="M128.35 305.41C128.28 303.85 128.25 302.28 128.15 300.71C128.06 299.22 127.93 297.73 127.76 296.24C127.59 294.75 127.64 293.26 127.84 291.77C128.19 289.08 128.03 286.4 127.5 283.74C127.28 282.64 127 281.55 126.5 280.54C126 279.52 125.36 278.61 124.33 278.05C124.21 277.99 124.03 277.95 123.91 277.99C123.8 278.03 123.66 278.21 123.69 278.3C123.94 279.44 123.56 280.54 123.39 281.63C123.16 283.1 122.73 284.54 122.34 285.98C122.21 286.48 122.05 287.06 121.58 287.32C120.81 287.74 120.71 288.46 120.52 289.18C119.89 291.43 119.66 293.74 119.56 296.04C119.42 299.32 119.45 302.62 119.42 305.9C119.4 307.29 119.81 308.57 120.72 309.63C122 311.12 122.97 312.79 123.7 314.61C123.81 314.88 123.96 315.13 124.1 315.39C124.74 315.09 124.97 314.51 125.2 313.97C126.16 311.78 127.06 309.57 128 307.37C128.26 306.74 128.38 306.1 128.35 305.41ZM120.75 305.53C120.72 305.4 120.69 305.22 120.75 305.14C121.15 304.68 121.7 304.47 122.26 304.28C122.32 304.26 122.4 304.31 122.47 304.32C122.58 304.4 122.71 304.48 122.8 304.58C122.83 304.61 122.81 304.73 122.77 304.79C122.35 305.51 121.69 305.74 120.9 305.66C120.85 305.66 120.76 305.58 120.75 305.53ZM124.63 306.72C124.57 306.84 124.45 306.95 124.33 307.03C123.52 307.58 122.6 307.78 121.7 307.88C121.5 307.84 121.34 307.85 121.22 307.79C121.11 307.73 121.02 307.6 120.94 307.49C120.84 307.35 120.89 307.21 121.04 307.12C121.92 306.56 122.94 306.41 123.9 306.07C124.03 306.03 124.2 306.04 124.33 306.08C124.46 306.12 124.62 306.2 124.67 306.31C124.72 306.42 124.69 306.6 124.63 306.72Z" fill="#B2422A"/>
<path d="M140.57 311.18C139.92 313.4 139.23 315.61 138.98 317.91C140.47 319.84 142.87 322.05 145.21 323.65C145.53 323.64 145.77 323.49 145.95 323.23C146.78 322.05 147.88 321.16 148.99 320.27C150.04 319.44 151.14 318.67 152.16 317.63C151.8 317.38 151.53 317.16 151.22 316.98C150.64 316.64 150.05 316.32 149.45 316.01C147.57 315.05 145.94 313.77 144.45 312.26C143.61 311.42 142.63 310.71 141.66 309.89C140.99 310.22 140.72 310.65 140.57 311.18Z" fill="#B2422A"/>
<path d="M305.34 303.08C305.39 303.04 305.47 303.01 305.48 302.97C305.67 301.43 305.85 299.89 306.02 298.36C306.03 298.22 305.96 298.07 305.91 297.85C305.67 297.92 305.58 297.93 305.54 297.97C304.99 298.67 304.46 299.37 303.92 300.07C303.88 300.13 303.83 300.19 303.8 300.25C303.66 300.53 303.63 300.81 303.74 301.1C304.07 301.94 304.34 302.27 305.34 303.08Z" fill="#B2422A"/>
<path d="M118.43 274.68C118.41 274.68 118.39 274.68 118.36 274.68C118.43 274.68 118.49 274.68 118.56 274.68C118.53 274.69 118.48 274.68 118.43 274.68Z" fill="#B2422A"/>
<path d="M120.22 279.7C120.32 278.86 120.25 278.06 119.82 277.32C119.68 277.08 119.45 276.81 119.2 276.72C118.18 276.37 117.18 276.34 116.31 277.13C116.92 278.94 117.45 280.5 118 282.52C118.18 283.19 118.62 283.9 118.51 284.59C118.42 285.2 118.48 286.54 118.69 287.12C118.77 287.33 118.96 287.45 119.29 287.38C119.36 286.92 119.46 286.42 119.52 285.9C119.76 283.84 119.98 281.77 120.22 279.7Z" fill="#B2422A"/>
<path d="M304.16 231.52C304.04 233.93 303.37 235.67 302.14 236.72C300.92 237.77 299.19 238.08 296.97 237.64C294.73 237.2 292.95 235.98 291.64 233.98C290.33 231.98 289.66 229.5 289.66 226.53V222.41C289.66 219.45 290.34 217.25 291.69 215.8C293.04 214.35 294.89 213.85 297.23 214.32C299.39 214.75 301.05 215.73 302.23 217.28C303.41 218.83 304.05 220.83 304.15 223.3L301.32 222.74C301.2 220.86 300.81 219.46 300.17 218.54C299.53 217.62 298.55 217.03 297.23 216.77C295.71 216.47 294.54 216.84 293.72 217.9C292.9 218.95 292.49 220.65 292.49 222.99V227.16C292.49 229.46 292.87 231.3 293.63 232.68C294.39 234.06 295.5 234.89 296.96 235.18C298.42 235.47 299.47 235.31 300.12 234.7C300.76 234.09 301.16 232.84 301.32 230.95L304.16 231.52Z" fill="#B2422A"/>
<path d="M325.62 233.63C325.62 236.73 324.97 239 323.67 240.42C322.37 241.84 320.53 242.31 318.14 241.84C315.84 241.38 314.02 240.21 312.69 238.32C311.36 236.43 310.66 233.99 310.61 231V226.72C310.61 223.68 311.27 221.43 312.59 219.96C313.91 218.5 315.75 218 318.11 218.47C320.46 218.94 322.29 220.12 323.61 222.03C324.92 223.94 325.6 226.43 325.63 229.5V233.63H325.62ZM322.81 229.09C322.81 226.68 322.42 224.82 321.65 223.49C320.88 222.16 319.7 221.35 318.1 221.03C316.56 220.73 315.39 221.09 314.6 222.12C313.81 223.15 313.41 224.82 313.4 227.13V231.21C313.4 233.53 313.8 235.38 314.59 236.76C315.38 238.14 316.56 238.98 318.14 239.29C319.71 239.6 320.88 239.27 321.63 238.29C322.39 237.31 322.78 235.67 322.81 233.35V229.09Z" fill="#B2422A"/>
<path d="M343.44 236.48L335.9 234.99V245.04L333.1 244.49V221.74L344.72 224.04V226.49L335.91 224.75V232.55L343.45 234.04V236.48H343.44Z" fill="#B2422A"/>
<path d="M361.66 240.09L354.12 238.6V248.65L351.32 248.09V225.34L362.94 227.64V230.09L354.13 228.35V236.15L361.67 237.64V240.09H361.66Z" fill="#B2422A"/>
<path d="M380.24 243.29L372.35 241.73V249.79L381.55 251.61V254.06L369.55 251.68V228.93L381.4 231.27V233.72L372.36 231.93V239.26L380.25 240.82V243.29H380.24Z" fill="#B2422A"/>
<path d="M398.96 247L391.07 245.44V253.5L400.27 255.32V257.77L388.27 255.39V232.64L400.12 234.98V237.43L391.08 235.64V242.97L398.97 244.53V247H398.96Z" fill="#B2422A"/>
<path d="M35.5 260.83V235.24L41.47 234C44.4 233.4 46.67 233.86 48.29 235.4C49.91 236.93 50.72 239.4 50.72 242.78V247.07C50.72 250.46 49.9 253.24 48.26 255.43C46.62 257.61 44.24 259.03 41.12 259.68L35.5 260.83ZM38.65 237.35V257.42L41.18 256.9C43.39 256.44 45.01 255.46 46.03 253.95C47.05 252.44 47.57 250.41 47.6 247.87V243.33C47.6 240.63 47.09 238.76 46.08 237.71C45.07 236.66 43.53 236.34 41.48 236.77L38.65 237.35Z" fill="#B2422A"/>
<path d="M69.05 242.07L60.18 243.9V252.97L70.51 250.84V253.6L57.03 256.39V230.8L70.34 228.05V230.81L60.18 232.91V241.15L69.05 239.32V242.07Z" fill="#B2422A"/>
<path d="M83.11 246.05L88.84 224.21L92.3 223.5L84.5 250.71L81.75 251.28L73.97 227.29L77.41 226.58L83.11 246.05Z" fill="#B2422A"/>
<path d="M100.39 247.42L97.24 248.07V222.48L100.39 221.83V247.42Z" fill="#B2422A"/>
<path d="M123.7 242.6L120.53 243.25L110.49 225.6V245.32L107.32 245.97V220.38L110.49 219.73L120.56 237.46V217.65L123.69 217V242.6H123.7Z" fill="#B2422A"/>
<path d="M142.58 226.87L133.71 228.7V237.77L144.04 235.64V238.4L130.56 241.19V215.6L143.87 212.85V215.61L133.71 217.71V225.95L142.58 224.12V226.87Z" fill="#B2422A"/>
<path d="M415.97 219.98V124.64L217.89 22.65L19.8 124.64V219.98" stroke="#B2422A" stroke-width="4.5" stroke-miterlimit="10"/>
<path d="M19.8 279.88V302.85C19.8 338.47 47.3 368.77 70.86 383.89C96.13 400.11 124.62 412.23 152.17 423.95C169.49 431.32 187.4 438.94 204.65 447.59C207.83 449.19 213.53 452.22 217.89 454.56C222.25 452.23 227.95 449.19 231.13 447.59C248.38 438.93 266.29 431.31 283.61 423.95C311.16 412.23 339.65 400.11 364.92 383.89C388.47 368.77 415.98 338.48 415.98 302.85V279.88" stroke="#B2422A" stroke-width="4.5" stroke-miterlimit="10"/>
<path d="M217.89 8.36L7.42001 117.5V302.84C7.42001 340.41 33.81 374.8 64.17 394.29C106.31 421.34 154.56 436.28 199.09 458.64C204.5 461.35 217.88 468.6 217.88 468.6C217.88 468.6 231.26 461.35 236.67 458.64C281.2 436.29 329.45 421.34 371.59 394.29C401.95 374.8 428.34 340.41 428.34 302.84V117.5L217.89 8.36Z" stroke="#B2422A" stroke-width="3" stroke-miterlimit="10"/>
<path d="M7.42001 282.49L157.99 251.46" stroke="#B2422A" stroke-width="3" stroke-miterlimit="10" stroke-linecap="round" stroke-linejoin="round"/>
<path d="M7.42001 233.82L24.46 230.31" stroke="#B2422A" stroke-width="3" stroke-miterlimit="10" stroke-linecap="round" stroke-linejoin="round"/>
<path d="M7.42001 245.95L24.46 242.44" stroke="#B2422A" stroke-width="3" stroke-miterlimit="10" stroke-linecap="round" stroke-linejoin="round"/>
<path d="M7.42001 258.08L24.46 254.57" stroke="#B2422A" stroke-width="3" stroke-miterlimit="10" stroke-linecap="round" stroke-linejoin="round"/>
<path d="M7.42001 270.22L24.46 266.7" stroke="#B2422A" stroke-width="3" stroke-miterlimit="10" stroke-linecap="round" stroke-linejoin="round"/>
<path d="M19.67 288.54L150.35 261.61" stroke="#B2422A" stroke-width="3" stroke-miterlimit="10" stroke-linecap="round" stroke-linejoin="round"/>
<path d="M8.62003 222.73L175.03 188.44" stroke="#B2422A" stroke-width="3" stroke-miterlimit="10" stroke-linecap="round" stroke-linejoin="round"/>
<path d="M157.99 251.46L150.35 261.61" stroke="#B2422A" stroke-width="3" stroke-miterlimit="10" stroke-linecap="round" stroke-linejoin="round"/>
<path d="M174.92 188.46C164.44 199.25 157.98 213.97 157.98 230.2V250.77" stroke="#B2422A" stroke-width="3" stroke-miterlimit="10" stroke-linecap="round" stroke-linejoin="round"/>
<path d="M428.35 282.49L277.79 251.46" stroke="#B2422A" stroke-width="3" stroke-miterlimit="10" stroke-linecap="round" stroke-linejoin="round"/>
<path d="M428.35 233.82L411.31 230.31" stroke="#B2422A" stroke-width="3" stroke-miterlimit="10" stroke-linecap="round" stroke-linejoin="round"/>
<path d="M428.35 245.95L411.31 242.44" stroke="#B2422A" stroke-width="3" stroke-miterlimit="10" stroke-linecap="round" stroke-linejoin="round"/>
<path d="M428.35 258.08L411.31 254.57" stroke="#B2422A" stroke-width="3" stroke-miterlimit="10" stroke-linecap="round" stroke-linejoin="round"/>
<path d="M428.35 270.22L411.31 266.7" stroke="#B2422A" stroke-width="3" stroke-miterlimit="10" stroke-linecap="round" stroke-linejoin="round"/>
<path d="M416.11 288.54L285.43 261.61" stroke="#B2422A" stroke-width="3" stroke-miterlimit="10" stroke-linecap="round" stroke-linejoin="round"/>
<path d="M427.15 222.73L260.74 188.44" stroke="#B2422A" stroke-width="3" stroke-miterlimit="10" stroke-linecap="round" stroke-linejoin="round"/>
<path d="M277.79 251.46L285.43 261.61" stroke="#B2422A" stroke-width="3" stroke-miterlimit="10" stroke-linecap="round" stroke-linejoin="round"/>
<path d="M260.85 188.46C271.33 199.25 277.79 213.97 277.79 230.2V250.77" stroke="#B2422A" stroke-width="3" stroke-miterlimit="10" stroke-linecap="round" stroke-linejoin="round"/>
<path d="M217.83 427.65C217.85 431.62 217.86 435.59 217.88 439.55" stroke="#B2422A" stroke-width="3" stroke-miterlimit="10"/>
<path d="M217.77 411.96C217.78 415.36 217.8 418.76 217.81 422.16" stroke="#B2422A" stroke-width="3" stroke-miterlimit="10"/>
<path d="M71.67 340.75C63.31 340.71 54.96 340.68 46.6 340.63" stroke="#B2422A" stroke-width="3" stroke-miterlimit="10"/>
<path d="M95.01 340.84C89.82 340.82 84.64 340.8 79.45 340.79" stroke="#B2422A" stroke-width="3" stroke-miterlimit="10"/>
<path d="M120.09 340.9C115.48 340.89 110.87 340.88 106.26 340.87" stroke="#B2422A" stroke-width="3" stroke-miterlimit="10"/>
<path d="M344.89 340.48C336.19 340.48 327.5 340.48 318.8 340.48" stroke="#B2422A" stroke-width="3" stroke-miterlimit="10"/>
<path d="M370.07 340.61C365.24 340.62 360.42 340.64 355.59 340.65" stroke="#B2422A" stroke-width="3" stroke-miterlimit="10"/>
<path d="M388.81 340.56C384.55 340.57 380.29 340.58 376.03 340.6" stroke="#B2422A" stroke-width="3" stroke-miterlimit="10"/>
<path d="M153.75 404.68C151.93 406.51 150.11 408.34 148.29 410.16" stroke="#B2422A" stroke-width="3" stroke-miterlimit="10"/>
<path d="M166.49 391.88C163.86 394.52 161.23 397.16 158.6 399.81" stroke="#B2422A" stroke-width="3" stroke-miterlimit="10"/>
<path d="M286.46 271.81C283.45 274.85 280.43 277.89 277.42 280.93" stroke="#B2422A" stroke-width="3" stroke-miterlimit="10"/>
<path d="M159.72 282.2C156.46 278.94 153.19 275.68 149.93 272.42" stroke="#B2422A" stroke-width="3" stroke-miterlimit="10"/>
<path d="M284.42 407.01C280.15 402.73 275.87 398.45 271.6 394.16" stroke="#B2422A" stroke-width="3" stroke-miterlimit="10"/>
<path d="M184.05 419.86C183.14 421.93 182.23 424 181.32 426.07" stroke="#B2422A" stroke-width="3" stroke-miterlimit="10"/>
<path d="M96.18 288.69C93.28 287.46 90.38 286.24 87.48 285.02" stroke="#B2422A" stroke-width="3" stroke-miterlimit="10"/>
<path d="M107.25 293.38C104.88 292.37 102.51 291.37 100.13 290.36" stroke="#B2422A" stroke-width="3" stroke-miterlimit="10"/>
<path d="M308.59 379.17C304.14 377.27 299.69 375.38 295.25 373.48" stroke="#B2422A" stroke-width="3" stroke-miterlimit="10"/>
<path d="M330.57 388.54C325.6 386.42 320.63 384.3 315.66 382.18" stroke="#B2422A" stroke-width="3" stroke-miterlimit="10"/>
<path d="M113.61 382.51C109.39 384.14 105.17 385.76 100.95 387.39" stroke="#B2422A" stroke-width="3" stroke-miterlimit="10"/>
<path d="M127.85 377.01C124.95 378.13 122.05 379.26 119.15 380.38" stroke="#B2422A" stroke-width="3" stroke-miterlimit="10"/>
<path d="M140.5 372.08C137.87 373.11 135.23 374.14 132.6 375.16" stroke="#B2422A" stroke-width="3" stroke-miterlimit="10"/>
<path d="M338.04 292.16C335.1 293.34 332.16 294.52 329.22 295.71" stroke="#B2422A" stroke-width="3" stroke-miterlimit="10"/>
<path d="M354.08 285.71C350.34 287.22 346.6 288.72 342.85 290.23" stroke="#B2422A" stroke-width="3" stroke-miterlimit="10"/>
<path d="M253.17 428.21C252.53 426.62 251.89 425.04 251.25 423.45" stroke="#B2422A" stroke-width="3" stroke-miterlimit="10"/>
<path d="M201.46 420.06C200.6 424.18 199.76 428.3 198.91 432.42" stroke="#B2422A" stroke-width="3" stroke-miterlimit="10"/>
<path d="M49.13 305.72C43.8 304.61 38.47 303.5 33.14 302.38" stroke="#B2422A" stroke-width="3" stroke-miterlimit="10"/>
<path d="M81.97 312.52C74.39 310.96 66.81 309.39 59.24 307.82" stroke="#B2422A" stroke-width="3" stroke-miterlimit="10"/>
<path d="M113.13 318.92C105.55 317.37 97.97 315.81 90.39 314.25" stroke="#B2422A" stroke-width="3" stroke-miterlimit="10"/>
<path d="M333.92 364.62C326.72 363.19 319.54 361.69 312.38 360.09" stroke="#B2422A" stroke-width="3" stroke-miterlimit="10"/>
<path d="M361.35 369.92C355.81 368.86 350.26 367.81 344.72 366.74" stroke="#B2422A" stroke-width="3" stroke-miterlimit="10"/>
<path d="M134.97 395.13C132.15 397.02 129.32 398.91 126.5 400.81" stroke="#B2422A" stroke-width="3" stroke-miterlimit="10"/>
<path d="M154.8 381.98C150.3 384.93 145.81 387.9 141.33 390.88" stroke="#B2422A" stroke-width="3" stroke-miterlimit="10"/>
<path d="M290.85 293.1C288.72 294.46 286.59 295.82 284.46 297.16" stroke="#B2422A" stroke-width="3" stroke-miterlimit="10"/>
<path d="M301.45 286.24C299.34 287.62 297.22 289 295.1 290.37" stroke="#B2422A" stroke-width="3" stroke-miterlimit="10"/>
<path d="M270.16 419.73L262.84 408.6" stroke="#B2422A" stroke-width="3" stroke-miterlimit="10"/>
<path d="M166.73 413.95C165.25 416.04 163.78 418.13 162.31 420.23" stroke="#B2422A" stroke-width="3" stroke-miterlimit="10"/>
<path d="M174.15 403.52C172.66 405.6 171.17 407.68 169.69 409.77" stroke="#B2422A" stroke-width="3" stroke-miterlimit="10"/>
<path d="M144.81 290.38C141.64 288.2 138.48 286.02 135.33 283.82" stroke="#B2422A" stroke-width="3" stroke-miterlimit="10"/>
<path d="M291.85 391.55C288.76 389.49 285.67 387.43 282.58 385.37" stroke="#B2422A" stroke-width="3" stroke-miterlimit="10"/>
<path d="M305.38 400.62C302.3 398.54 299.21 396.48 296.13 394.41" stroke="#B2422A" stroke-width="3" stroke-miterlimit="10"/>
<path d="M75.74 366.31C72.9 366.82 70.07 367.33 67.23 367.84" stroke="#B2422A" stroke-width="3" stroke-miterlimit="10"/>
<path d="M100.42 361.85C95.03 362.83 89.64 363.8 84.25 364.77" stroke="#B2422A" stroke-width="3" stroke-miterlimit="10"/>
<path d="M126.8 357.07C119.99 358.31 113.19 359.54 106.38 360.78" stroke="#B2422A" stroke-width="3" stroke-miterlimit="10"/>
<path d="M346.08 317.31C338.08 318.79 330.07 320.24 322.05 321.65" stroke="#B2422A" stroke-width="3" stroke-miterlimit="10"/>
<path d="M374.74 312C367.98 313.25 361.22 314.51 354.46 315.77" stroke="#B2422A" stroke-width="3" stroke-miterlimit="10"/>
<path d="M405.19 306.53C399.54 307.5 393.9 308.5 388.26 309.52" stroke="#B2422A" stroke-width="3" stroke-miterlimit="10"/>
<path d="M235.12 434.79C234.14 429.57 233.14 424.35 232.1 419.14" stroke="#B2422A" stroke-width="3" stroke-miterlimit="10"/>
<path d="M45.89 187.19V136.71H61.49C66.76 136.71 70.76 137.88 73.5 140.23C76.24 142.58 77.61 146.01 77.61 150.54C77.61 153.11 77.04 155.31 75.91 157.16C74.78 159.01 73.23 160.36 71.27 161.22C73.53 161.87 75.28 163.17 76.5 165.12C77.72 167.07 78.34 169.48 78.34 172.35C78.34 177.25 76.99 180.95 74.3 183.44C71.61 185.94 67.71 187.18 62.6 187.18H45.89V187.19ZM56.08 157.82H61.38C65.38 157.82 67.38 155.75 67.38 151.61C67.38 149.32 66.92 147.68 65.99 146.69C65.07 145.7 63.56 145.2 61.48 145.2H56.07V157.82H56.08ZM56.08 165.24V178.73H62.6C64.43 178.73 65.81 178.16 66.76 177.03C67.71 175.9 68.18 174.29 68.18 172.21C68.18 167.68 66.54 165.36 63.26 165.24H56.08Z" fill="#B2422A"/>
<path d="M119.45 140.88H105.55L102.85 151.21H92.07L107.84 100.73H117.17L133.05 151.21H122.16L119.45 140.88ZM107.77 132.39H117.2L112.49 114.4L107.77 132.39Z" fill="#B2422A"/>
<path d="M170.55 111.9H165.49V130.34H155.3V79.87H171.56C176.67 79.87 180.61 81.19 183.4 83.84C186.18 86.49 187.58 90.25 187.58 95.12C187.58 101.82 185.14 106.51 180.26 109.2L189.1 129.86V130.35H178.14L170.55 111.9ZM165.49 103.41H171.28C173.31 103.41 174.84 102.73 175.86 101.38C176.88 100.03 177.39 98.22 177.39 95.95C177.39 90.89 175.41 88.36 171.46 88.36H165.5V103.41H165.49Z" fill="#B2422A"/>
<path d="M226.21 125.53H216.02V75.05H226.21V125.53Z" fill="#B2422A"/>
<path d="M276.9 118.39C276.9 116.33 276.37 114.78 275.32 113.73C274.27 112.68 272.36 111.59 269.58 110.45C264.52 108.53 260.88 106.28 258.66 103.71C256.44 101.14 255.33 98.09 255.33 94.57C255.33 90.32 256.84 86.9 259.85 84.33C262.87 81.75 266.7 80.46 271.34 80.46C274.44 80.46 277.2 81.11 279.63 82.42C282.06 83.73 283.92 85.57 285.23 87.95C286.54 90.33 287.19 93.03 287.19 96.06H277.03C277.03 93.7 276.53 91.91 275.52 90.67C274.51 89.43 273.06 88.82 271.17 88.82C269.39 88.82 268 89.35 267.01 90.4C266.02 91.45 265.52 92.87 265.52 94.65C265.52 96.04 266.07 97.29 267.18 98.41C268.29 99.53 270.25 100.69 273.07 101.89C277.99 103.67 281.57 105.85 283.8 108.44C286.03 111.03 287.15 114.32 287.15 118.32C287.15 122.71 285.75 126.14 282.95 128.62C280.15 131.09 276.35 132.33 271.54 132.33C268.28 132.33 265.31 131.66 262.63 130.32C259.95 128.98 257.85 127.06 256.34 124.57C254.83 122.08 254.07 119.13 254.07 115.73H264.3C264.3 118.64 264.87 120.76 266 122.07C267.13 123.39 268.98 124.05 271.55 124.05C275.12 124.05 276.9 122.16 276.9 118.39Z" fill="#B2422A"/>
<path d="M343.82 110.86H331.34V152.84H321.11V110.86H308.84V102.37H343.82V110.86Z" fill="#B2422A"/>
<path d="M380.02 175.97H366.12L363.42 186.3H352.64L368.41 135.82H377.74L393.62 186.3H382.73L380.02 175.97ZM368.34 167.48H377.77L373.06 149.49L368.34 167.48Z" fill="#B2422A"/>
<path d="M119.22 174.94L121.08 178.44C121.34 178.93 121.58 179.26 121.8 179.43C122.02 179.6 122.28 179.65 122.58 179.59C122.88 179.53 123.33 179.36 123.93 179.08L124.14 179.47C123.45 179.79 122.48 180.27 121.25 180.93C120.13 181.52 119.32 181.98 118.79 182.31L118.58 181.92C119.03 181.65 119.34 181.41 119.52 181.22C119.69 181.03 119.76 180.8 119.72 180.54C119.68 180.28 119.53 179.9 119.27 179.41L114.16 169.77C113.9 169.28 113.67 168.94 113.48 168.76C113.28 168.58 113.06 168.51 112.81 168.55C112.56 168.59 112.19 168.71 111.71 168.94L111.5 168.55C112.06 168.3 112.87 167.9 113.9 167.35L115.99 166.22C116.23 166.08 116.5 165.92 116.82 165.76C118.34 164.96 119.68 164.69 120.85 164.96C122.02 165.23 122.92 165.94 123.53 167.11C123.91 167.82 124.11 168.59 124.14 169.41C124.17 170.23 123.92 171.07 123.4 171.91C122.88 172.75 121.98 173.51 120.73 174.17L119.22 174.94ZM115.68 166.98C115.53 167.18 115.47 167.41 115.52 167.69C115.57 167.97 115.71 168.33 115.96 168.8L119.01 174.55L120.31 173.86C121.58 173.19 122.28 172.38 122.4 171.44C122.52 170.5 122.28 169.46 121.68 168.32C121.01 167.06 120.27 166.27 119.46 165.94C118.65 165.61 117.66 165.75 116.51 166.36C116.11 166.57 115.84 166.78 115.68 166.98Z" fill="#B2422A"/>
<path d="M135.24 157.55C134.76 157.78 134.43 157.98 134.24 158.15C134.05 158.32 133.96 158.54 133.98 158.81C133.99 159.07 134.11 159.46 134.32 159.98L138.49 170.06C138.7 170.57 138.9 170.93 139.07 171.13C139.25 171.33 139.46 171.42 139.72 171.4C139.97 171.38 140.34 171.27 140.83 171.07L142.31 170.46C143.15 170.11 143.74 169.73 144.08 169.31C144.42 168.89 144.59 168.38 144.57 167.76C144.56 167.15 144.39 166.32 144.07 165.28L144.54 165.09C144.67 165.53 144.88 166.09 145.17 166.78C145.49 167.55 145.9 168.4 146.39 169.32C145.45 169.66 143.89 170.28 141.71 171.18C139.11 172.26 137.15 173.09 135.84 173.68L135.67 173.27C136.15 173.04 136.48 172.84 136.67 172.67C136.86 172.5 136.95 172.28 136.93 172.01C136.92 171.75 136.8 171.36 136.59 170.84L132.42 160.76C132.21 160.24 132.01 159.89 131.84 159.69C131.66 159.49 131.45 159.4 131.19 159.41C130.93 159.42 130.56 159.51 130.06 159.69L129.89 159.28C130.48 159.09 131.35 158.75 132.52 158.27C133.6 157.82 134.46 157.44 135.08 157.14L135.24 157.55Z" fill="#B2422A"/>
<path d="M166.05 162.5L166.18 162.92C165.6 163.05 164.85 163.25 163.91 163.54C162.7 163.91 161.81 164.2 161.23 164.42L161.1 164C161.63 163.81 161.99 163.63 162.19 163.45C162.39 163.28 162.45 163.05 162.36 162.77C162.29 162.53 162.1 162.23 161.81 161.86L159.48 158.8L154.38 160.34L154.19 162.83C154.14 163.67 154.17 164.29 154.29 164.68C154.42 165.12 154.67 165.39 155.03 165.49C155.39 165.6 155.88 165.56 156.5 165.39L156.63 165.81C155.82 166.01 155 166.23 154.19 166.48C153.56 166.67 153.04 166.85 152.63 167.02L152.5 166.6C153.15 166.22 153.52 165.44 153.61 164.27L154.7 150L155.04 149.9L164.19 161.59C164.79 162.36 165.41 162.66 166.05 162.5ZM159.18 158.42L154.92 152.84L154.43 159.86L159.18 158.42Z" fill="#B2422A"/>
<path d="M183.26 143.85C182.76 143.98 182.4 144.12 182.18 144.29C181.96 144.46 181.83 144.69 181.8 144.99C181.77 145.29 181.8 145.71 181.91 146.26L184.41 159.15L183.91 159.25L172.13 147L174.34 158.4C174.45 158.96 174.58 159.37 174.72 159.63C174.87 159.89 175.09 160.05 175.39 160.12C175.69 160.19 176.13 160.18 176.71 160.1L176.79 160.53C176.26 160.59 175.53 160.71 174.58 160.89C173.72 161.06 173.05 161.21 172.58 161.35L172.5 160.92C173 160.79 173.36 160.65 173.58 160.48C173.8 160.31 173.93 160.08 173.96 159.78C173.99 159.48 173.96 159.06 173.85 158.51L171.81 148.01C171.7 147.46 171.58 147.08 171.45 146.85C171.32 146.62 171.12 146.49 170.87 146.45C170.62 146.41 170.23 146.43 169.7 146.5L169.62 146.07C170.1 146.02 170.78 145.91 171.64 145.74C172.29 145.62 172.85 145.48 173.31 145.35L183.21 155.62L181.42 146.38C181.31 145.82 181.18 145.41 181.04 145.15C180.89 144.9 180.67 144.73 180.37 144.66C180.07 144.59 179.63 144.6 179.05 144.68L178.97 144.25C179.5 144.19 180.23 144.07 181.19 143.89C182.05 143.72 182.72 143.57 183.19 143.43L183.26 143.85Z" fill="#B2422A"/>
<path d="M204.8 143.9C204.86 144.63 204.94 145.23 205.02 145.69L204.52 145.73C204.3 144.62 204.08 143.79 203.86 143.26C203.64 142.73 203.29 142.35 202.83 142.14C202.37 141.93 201.69 141.85 200.78 141.93L199.6 142.03L200.7 154.5C200.75 155.11 200.85 155.55 200.99 155.82C201.13 156.09 201.35 156.26 201.65 156.34C201.95 156.42 202.43 156.44 203.09 156.41L203.13 156.85C202.37 156.87 201.29 156.95 199.9 157.07C198.44 157.2 197.36 157.32 196.66 157.42L196.62 156.98C197.28 156.89 197.74 156.78 198.03 156.66C198.31 156.53 198.5 156.32 198.59 156.04C198.68 155.75 198.7 155.3 198.65 154.69L197.55 142.22L196.37 142.32C195.46 142.4 194.8 142.59 194.39 142.88C193.97 143.17 193.7 143.6 193.58 144.17C193.46 144.74 193.38 145.58 193.36 146.72L192.86 146.76C192.86 146.29 192.83 145.69 192.77 144.96C192.7 144.13 192.56 143.2 192.37 142.17C193.59 142.11 195.65 141.95 198.56 141.69C201.45 141.43 203.5 141.23 204.71 141.08C204.69 142.13 204.72 143.06 204.8 143.9Z" fill="#B2422A"/>
<path d="M221.06 151.02L213.12 151.11L213.1 149.83L221.04 149.74L221.06 151.02Z" fill="#B2422A"/>
<path d="M241.16 150.75C241.78 151.52 242.05 152.4 241.97 153.39C241.9 154.22 241.62 154.94 241.14 155.55C240.66 156.16 240.01 156.6 239.19 156.89C238.37 157.18 237.42 157.28 236.34 157.18C235.95 157.14 235.61 157.11 235.33 157.07C234.4 156.96 233.48 156.86 232.57 156.78C231.37 156.67 230.46 156.62 229.85 156.61L229.89 156.17C230.42 156.19 230.81 156.16 231.06 156.1C231.31 156.04 231.49 155.88 231.6 155.64C231.71 155.4 231.79 155 231.84 154.45L232.8 143.58C232.85 143.02 232.84 142.62 232.77 142.36C232.7 142.1 232.55 141.92 232.32 141.81C232.09 141.7 231.71 141.61 231.19 141.53L231.23 141.09C231.84 141.19 232.73 141.29 233.9 141.39L236.27 141.58C236.55 141.59 236.86 141.61 237.21 141.64C238.7 141.77 239.82 142.19 240.56 142.88C241.3 143.57 241.63 144.45 241.53 145.48C241.46 146.33 241.12 147.06 240.53 147.69C239.94 148.31 239.05 148.75 237.86 149V149.04C239.43 149.42 240.54 149.98 241.16 150.75ZM239.78 153.11C239.88 151.96 239.65 151.05 239.08 150.4C238.51 149.75 237.55 149.36 236.19 149.24L234.35 149.08L233.86 154.62C233.81 155.15 233.82 155.54 233.89 155.79C233.96 156.05 234.1 156.23 234.32 156.35C234.54 156.47 234.88 156.54 235.35 156.58C238.08 156.83 239.56 155.67 239.78 153.11ZM235.58 142.08C235.34 142.16 235.17 142.33 235.06 142.59C234.95 142.85 234.87 143.24 234.82 143.76L234.38 148.71L235.85 148.84C237.05 148.95 237.91 148.69 238.44 148.09C238.97 147.48 239.29 146.64 239.38 145.56C239.48 144.46 239.31 143.63 238.87 143.04C238.43 142.45 237.68 142.12 236.6 142.02C236.16 141.97 235.81 141.99 235.58 142.08Z" fill="#B2422A"/>
<path d="M262.4 160.71L262.32 161.14C261.75 160.99 260.99 160.82 260.02 160.64C258.78 160.41 257.85 160.26 257.24 160.18L257.32 159.75C257.87 159.82 258.28 159.83 258.54 159.77C258.8 159.71 258.96 159.53 259.01 159.24C259.06 159 259.03 158.64 258.94 158.18L258.29 154.39L253.06 153.4L251.74 155.52C251.31 156.24 251.05 156.81 250.97 157.21C250.89 157.66 250.98 158.01 251.25 158.27C251.52 158.53 251.97 158.73 252.61 158.86L252.53 159.29C251.72 159.09 250.89 158.91 250.06 158.76C249.41 158.64 248.87 158.56 248.43 158.52L248.51 158.09C249.26 158.05 249.95 157.53 250.57 156.53L258.12 144.38L258.47 144.45L261.18 159.04C261.35 160 261.76 160.56 262.4 160.71ZM258.2 153.92L256.99 147L253.31 153L258.2 153.92Z" fill="#B2422A"/>
<path d="M279.49 149.61C279.81 149.85 280.12 150.15 280.43 150.51C280.68 150.8 280.89 150.97 281.06 151.01C281.19 151.05 281.31 151 281.42 150.87C281.53 150.74 281.66 150.52 281.79 150.21L282.28 150.35C281.97 151.15 281.52 152.57 280.93 154.63L280.44 154.49C280.69 153.32 280.64 152.27 280.29 151.32C279.95 150.37 279.23 149.74 278.15 149.43C277.39 149.21 276.7 149.26 276.09 149.58C275.48 149.9 275.07 150.42 274.86 151.14C274.7 151.68 274.69 152.18 274.83 152.64C274.96 153.11 275.18 153.54 275.48 153.93C275.78 154.32 276.22 154.84 276.8 155.48L277.3 156.04C278.03 156.85 278.59 157.53 278.98 158.1C279.37 158.66 279.65 159.26 279.8 159.88C279.95 160.5 279.93 161.18 279.72 161.9C279.35 163.18 278.64 164.05 277.59 164.5C276.54 164.95 275.37 164.99 274.08 164.62C273.4 164.42 272.87 164.19 272.48 163.93C272.09 163.67 271.73 163.36 271.41 163C271.16 162.71 270.95 162.55 270.78 162.5C270.65 162.46 270.53 162.51 270.42 162.64C270.31 162.77 270.18 162.99 270.05 163.3L269.56 163.16C269.84 162.4 270.36 160.72 271.11 158.11L271.6 158.25C271.29 159.7 271.3 160.96 271.65 162.02C272 163.08 272.8 163.8 274.05 164.16C274.81 164.38 275.53 164.33 276.2 164.02C276.87 163.7 277.34 163.08 277.61 162.15C277.84 161.36 277.77 160.62 277.4 159.91C277.03 159.21 276.38 158.35 275.43 157.33C274.75 156.58 274.2 155.94 273.8 155.39C273.4 154.85 273.12 154.25 272.96 153.6C272.8 152.95 272.82 152.25 273.04 151.5C273.38 150.32 274.02 149.52 274.97 149.12C275.91 148.71 276.95 148.67 278.07 149C278.7 149.16 279.17 149.37 279.49 149.61Z" fill="#B2422A"/>
<path d="M297.08 172.43C296.17 172.02 294.61 171.39 292.42 170.52C289.8 169.49 287.81 168.73 286.46 168.24L286.62 167.83C287.12 168 287.5 168.08 287.76 168.09C288.02 168.1 288.23 168 288.41 167.8C288.58 167.6 288.77 167.24 288.98 166.72L292.99 156.57C293.19 156.05 293.3 155.66 293.31 155.4C293.32 155.14 293.23 154.92 293.04 154.75C292.85 154.58 292.51 154.38 292.03 154.16L292.19 153.75C293.51 154.32 295.48 155.12 298.1 156.15C300.11 156.94 301.54 157.48 302.4 157.78C301.95 158.64 301.58 159.43 301.3 160.14C301.09 160.67 300.94 161.1 300.86 161.43L300.39 161.24C300.64 160.32 300.78 159.61 300.8 159.12C300.82 158.63 300.69 158.22 300.41 157.88C300.13 157.54 299.63 157.23 298.91 156.95L297.21 156.28C296.72 156.09 296.35 155.98 296.09 155.97C295.83 155.96 295.62 156.05 295.45 156.25C295.28 156.45 295.09 156.81 294.88 157.33L292.97 162.16L294.32 162.69C294.8 162.88 295.21 162.91 295.56 162.79C295.91 162.67 296.19 162.47 296.4 162.2C296.61 161.93 296.83 161.57 297.07 161.13L297.29 160.75L297.76 160.94C297.49 161.5 297.22 162.13 296.94 162.84L296.55 163.82C296.28 164.52 295.93 165.5 295.53 166.77L295.06 166.58C295.08 166.48 295.17 166.13 295.33 165.54C295.49 164.95 295.47 164.45 295.27 164.04C295.08 163.63 294.71 163.32 294.16 163.11L292.81 162.58L290.87 167.49C290.66 168.01 290.56 168.4 290.55 168.66C290.54 168.92 290.63 169.14 290.83 169.3C291.03 169.46 291.37 169.64 291.86 169.84L293.35 170.43C294.2 170.76 294.88 170.91 295.42 170.86C295.95 170.81 296.42 170.58 296.82 170.16C297.22 169.74 297.66 169.07 298.14 168.14L298.61 168.33C298.42 168.68 298.21 169.16 297.97 169.78C297.67 170.53 297.37 171.42 297.08 172.43Z" fill="#B2422A"/>
<path d="M321.35 169.14C321.89 170.89 321.59 172.86 320.45 175.06C319.71 176.48 318.78 177.57 317.67 178.35C316.56 179.13 315.32 179.53 313.96 179.55C312.6 179.58 311.18 179.21 309.71 178.44L308.59 177.83C307.88 177.42 307.35 177.13 307.01 176.96C305.94 176.4 305.13 176 304.56 175.76L304.76 175.37C305.24 175.59 305.61 175.71 305.87 175.75C306.12 175.78 306.35 175.71 306.54 175.53C306.73 175.35 306.96 175.01 307.22 174.52L312.26 164.84C312.52 164.35 312.67 163.97 312.7 163.71C312.73 163.45 312.67 163.22 312.49 163.03C312.31 162.84 312 162.61 311.55 162.34L311.75 161.95C312.18 162.23 312.81 162.57 313.61 162.99L315.28 163.83C316.18 164.26 316.78 164.56 317.08 164.72C319.38 165.92 320.81 167.4 321.35 169.14ZM315.43 164.49C315.18 164.48 314.96 164.57 314.76 164.76C314.56 164.95 314.34 165.28 314.09 165.75L309.01 175.51C308.77 175.98 308.62 176.35 308.58 176.62C308.54 176.9 308.59 177.13 308.75 177.33C308.9 177.53 309.19 177.73 309.61 177.95C310.99 178.67 312.2 178.98 313.26 178.9C314.31 178.81 315.25 178.37 316.07 177.57C316.89 176.77 317.69 175.63 318.47 174.13C319.25 172.63 319.71 171.32 319.85 170.2C319.99 169.07 319.79 168.07 319.25 167.19C318.71 166.31 317.77 165.52 316.43 164.83C316.01 164.61 315.68 164.5 315.43 164.49Z" fill="#B2422A"/>
</g>
<defs>
<clipPath id="clip0">
<rect width="435.77" height="477.04" fill="white"/>
</clipPath>
</defs>
</svg>
