<svg width="74" height="70" viewBox="0 0 74 70" fill="none" xmlns="http://www.w3.org/2000/svg">
<g clip-path="url(#clip0)">
<path d="M49.3333 20.641H24.6667H0V70H49.3333C62.9559 70 74 58.9502 74 45.3205C74 31.6909 62.9559 20.641 49.3333 20.641ZM25.4889 68.3547V22.2863C38.2037 22.2863 48.3467 32.5991 48.3467 45.3205C48.3467 58.042 38.2037 68.3547 25.4889 68.3547Z" fill="#B2422A"/>
</g>
<path fill-rule="evenodd" clip-rule="evenodd" d="M38.3069 27.5785C37.2847 27.9612 36.1499 28.1152 35.2966 28.864C34.7551 29.334 34.1054 29.5712 33.434 29.8291C33.3041 29.879 33.1785 29.9414 33.0485 29.9996C33.1005 29.8416 33.1438 29.671 33.1655 29.488C33.2001 29.1884 33.0182 28.864 33.2998 28.5894C35.3919 27.5785 35.3919 27.5785 36.1239 25.744C36.2798 25.6816 36.4574 25.6067 36.6393 25.5443C36.8212 25.4777 37.0248 25.4569 37.1938 25.3654C37.4753 25.2157 37.7612 25.0576 37.9994 24.8496C38.5279 24.392 38.5842 23.6765 38.1597 23.1523C37.8305 22.7446 37.432 22.4326 36.8776 22.3619C36.5614 22.3203 36.2452 22.2953 35.8683 22.2537C35.786 21.9251 35.734 21.6214 35.6344 21.3344C35.3182 20.4275 34.6815 20.0614 33.6809 20.1654C33.2998 20.207 32.9706 20.5232 32.5287 20.3568C32.1692 19.8243 31.6668 19.4666 30.9608 19.3917C30.0988 19.3002 29.4101 19.6579 29.0679 20.4109C28.7777 21.0598 28.6261 21.7213 28.7604 22.4285C28.8297 22.7904 28.899 23.1565 28.9726 23.5309C28.3792 24.288 28.1669 25.1241 28.1713 26.0269C28.1756 26.4013 28.115 26.7756 28.0457 27.1459C27.9417 27.7075 27.7165 28.215 27.2313 28.6268C26.8545 28.032 26.9931 27.4121 26.9845 26.8172C26.9758 25.9395 27.0494 25.0576 26.9628 24.1881C26.7592 22.1747 27.4176 20.4982 28.8946 19.0922C29.1242 18.8758 29.3451 18.6387 29.5617 18.4016C29.657 18.3018 29.6093 17.9648 29.4751 17.8899C29.3711 17.8317 29.2282 17.7693 29.1199 17.7818C28.9336 17.8109 28.7214 17.8608 28.5828 17.969C28.1799 18.281 27.7901 18.6138 27.4219 18.9632C27.1447 19.2253 26.9152 19.529 26.6596 19.8077C26.6336 19.8326 26.547 19.8326 26.5037 19.8118C26.4474 19.7827 26.3694 19.7245 26.3694 19.6829C26.3694 19.3792 26.3434 19.0589 26.4084 18.7635C26.7462 17.3242 27.6558 16.6627 29.1978 16.696C29.3928 16.7002 29.5877 16.7168 29.7826 16.7376C30.7745 16.8458 31.7318 16.6586 32.6804 16.4339C33.6593 16.2051 34.5689 15.7683 35.1623 15.0154C35.7081 14.3248 36.2105 13.5927 36.7346 12.8771C36.9512 12.5818 37.0551 12.1866 37.1071 11.8247C37.1808 11.313 37.341 10.872 37.6659 10.4477C38.3719 9.52419 38.5452 8.37187 39.0043 7.3402C39.1256 7.0698 39.1473 6.70788 39.078 6.41668C38.935 5.8218 39.1126 5.32676 39.3335 4.78596C39.9442 3.30501 39.7623 1.84069 39.1083 0.409658C38.9913 0.147579 38.5408 -0.0729036 38.2853 0.0227761C37.2631 0.405495 36.1282 0.559419 35.2749 1.30822C34.7335 1.77829 34.0838 2.01541 33.4124 2.27749C32.3945 2.67269 31.4762 3.29669 30.5103 3.80837C29.3235 4.43236 28.4918 5.385 27.8897 6.5082C27.5605 7.12388 27.214 7.71043 26.7765 8.26371C25.7327 9.58243 25.4121 11.08 25.7543 12.7066C25.8193 13.0144 25.9276 13.3181 25.9579 13.6259C26.0142 14.1834 26.0618 14.7491 26.0445 15.3107C26.0315 15.8848 25.7846 16.4006 25.5118 16.9082C25.4381 17.0454 25.3601 17.112 25.018 17.0288C24.6671 16.6835 24.4852 16.072 24.169 15.5437C23.6969 14.7616 23.5193 13.9088 23.5193 13.0186C23.5193 12.5818 23.5799 12.145 23.5842 11.7082C23.5929 10.7098 23.6016 9.70723 23.5799 8.70467C23.5669 8.19715 23.3807 7.71875 23.0818 7.29859C22.9778 7.14883 22.8262 7.01571 22.666 6.92003C22.575 6.86595 22.4061 6.87012 22.3021 6.91172C22.1982 6.95748 22.0596 7.07812 22.0596 7.16963C22.0552 7.60227 22.1072 8.03075 22.1115 8.46755C22.1245 9.20387 22.2675 9.96099 21.7044 10.8554C21.2063 9.70723 20.6042 8.76291 20.2273 7.71043C19.9934 7.049 19.8765 6.37924 20.0498 5.68036C20.1537 5.25604 20.2317 4.81924 20.2577 4.38245C20.2707 4.22437 20.1537 3.97893 20.0238 3.91237C19.8982 3.84997 19.6036 3.91653 19.504 4.02469C18.8933 4.70276 18.4644 5.45988 18.4904 6.40003C18.5034 6.77027 18.4558 7.14051 18.4384 7.51075C18.4601 7.51075 18.4774 7.50659 18.4991 7.50659C18.4774 7.51907 18.4601 7.53155 18.4384 7.54403C18.4471 7.64387 18.4601 7.74788 18.4558 7.84771C18.4558 7.86019 18.3475 7.88931 18.3432 7.88099C18.2392 7.71875 18.3128 7.61891 18.4384 7.53987C18.4384 7.53571 18.4384 7.5274 18.4384 7.52324C18.4384 7.51908 18.4384 7.51491 18.4384 7.50659C18.3258 7.51907 18.1959 7.55235 18.1309 7.50244C17.2689 6.85348 16.6582 5.89668 15.519 5.593C15.4151 5.56804 15.3328 5.4266 15.2678 5.3226C15.1335 5.10628 15.0382 4.86916 14.891 4.66116C14.3669 3.92069 13.6738 3.35493 12.8768 2.91397C12.4913 2.70181 12.0928 2.84325 11.9282 3.27589C11.599 4.16196 11.3651 5.07716 11.3435 6.02564C11.3305 6.57476 11.4648 7.13636 11.0273 7.63139C10.8973 7.77699 10.9623 8.11395 10.9883 8.35523C11.0619 9.05827 11.3521 9.68227 11.755 10.2688C12.0842 10.7389 12.4653 11.184 12.6992 11.6957C13.1497 12.6775 13.9597 13.2515 14.8693 13.784C15.8612 14.3622 16.8445 14.3539 17.858 13.9047C18.2738 13.7216 18.6637 13.4928 19.0665 13.289C19.4563 13.0976 19.8072 13.1642 20.158 13.4055C20.6518 13.7466 21.0417 14.1584 21.2193 14.72C21.5484 15.7517 22.1202 16.6669 22.7483 17.5488C23.6492 18.8218 24.1863 20.2278 24.4116 21.7296C24.6151 23.0899 24.7148 24.471 24.8317 25.8438C24.8577 26.1475 24.7754 26.4636 24.7061 26.7673C24.6801 26.8672 24.5502 26.9961 24.4505 27.0128C24.3466 27.0294 24.1993 26.9462 24.1127 26.8672C23.5193 26.3056 23.2767 25.6067 23.3244 24.8205C23.3503 24.3795 23.4456 23.9469 23.4586 23.5101C23.4976 22.1373 23.1468 20.8643 22.0985 19.9034C21.4272 19.2918 20.9161 18.5722 20.3486 17.8941C20.0194 17.503 19.6989 17.0995 19.2181 16.8666C18.3432 16.4506 17.4769 16.0138 16.5716 15.6685C16.0735 15.4771 15.6316 15.2691 15.2591 14.8989C14.6614 14.2999 13.9034 13.9254 13.1281 13.601C11.8199 13.056 11.1182 13.4304 10.9277 14.7408C10.893 14.9862 10.893 15.24 10.8497 15.4896C10.6808 16.4963 10.8887 17.4864 10.9883 18.4349C10.906 18.5264 10.8757 18.5888 10.8237 18.6096C10.7068 18.6595 10.5768 18.6762 10.4599 18.7344C9.98773 18.9549 9.84912 19.192 9.96607 19.6122C10.07 19.9741 10.2043 20.3277 10.3342 20.6813C10.4425 20.9725 10.6374 21.2595 10.6548 21.5549C10.7371 22.8777 11.5124 23.7264 12.6039 24.4211C13.0284 24.6915 13.4832 25.0368 13.7128 25.4569C14.3495 26.6259 15.4974 27.2665 16.4676 28.086C16.9744 28.5187 17.6328 28.631 18.3085 28.5769C18.8976 28.5312 19.465 28.3772 19.9891 28.1027C20.4439 27.8614 20.8987 27.6118 21.3709 27.3955C21.9859 27.1126 22.3368 27.1625 22.7873 27.5993C23.1511 27.9571 23.4889 28.3356 23.8398 28.71C24.1647 29.0512 24.3293 29.4505 24.2556 29.9164C24.1647 30.4739 24.0737 31.0271 23.9611 31.5804C23.9438 31.6636 23.8051 31.726 23.6839 31.8342C23.333 31.2975 23.0082 30.7609 22.6443 30.2492C22.5447 30.1036 22.3628 29.9913 22.1938 29.9164C22.0985 29.8748 21.9296 29.8998 21.8343 29.958C21.7434 30.0163 21.6437 30.1536 21.6524 30.2534C21.6654 30.4364 21.7174 30.6278 21.804 30.79C22.2415 31.6304 22.4537 32.5081 22.5533 33.4025C22.6876 33.7935 22.7656 34.1846 22.8089 34.5756C22.8825 35.2537 22.5837 35.9734 22.3844 36.6098C22.3108 36.847 21.6437 38.2447 21.713 38.407C21.2149 37.2588 20.6129 36.3145 20.236 35.262C20.0021 34.6006 19.8852 33.9308 20.0584 33.2319C20.1624 32.8076 20.2403 32.3708 20.2663 31.934C20.2793 31.7759 20.1624 31.5305 20.0324 31.4639C19.9068 31.4015 19.6123 31.4681 19.5127 31.5763C18.9019 32.2543 18.4731 33.0115 18.4991 33.9516C18.5121 34.3219 18.4644 34.6921 18.4471 35.0623C18.4688 35.0623 18.4861 35.0582 18.5077 35.0582C18.4861 35.0707 18.4688 35.0831 18.4471 35.0956C18.4558 35.1955 18.4688 35.2995 18.4644 35.3993C18.4644 35.4118 18.3561 35.4409 18.3518 35.4326C18.2479 35.2703 18.3215 35.1705 18.4471 35.0915C18.4471 35.0873 18.4471 35.079 18.4471 35.0748C18.4471 35.0707 18.4471 35.0665 18.4471 35.0582C18.3345 35.0707 18.2045 35.1039 18.1396 35.054C17.2776 34.4051 16.6669 33.4483 15.5277 33.1446C15.4237 33.1196 15.3414 32.9782 15.2765 32.8742C15.1422 32.6579 15.0469 32.4207 14.8996 32.2127C14.3755 31.4723 13.6825 30.9065 12.8855 30.4656C12.5 30.2534 12.1015 30.3948 11.9369 30.8275C11.6077 31.7135 11.3738 32.6287 11.3521 33.5772C11.3391 34.1263 11.4734 34.6879 11.0359 35.183C10.906 35.3286 10.971 35.6655 10.997 35.9068C11.0706 36.6098 11.3608 37.2338 11.7636 37.8204C12.0928 38.2905 12.474 38.7356 12.7079 39.2473C13.1584 40.229 13.9684 40.8031 14.878 41.3356C15.8699 41.9138 16.8531 41.9055 17.8667 41.4562C18.2825 41.2774 18.6723 41.0444 19.0752 40.8406C19.465 40.6492 19.8159 40.7158 20.1667 40.957C20.6605 41.2982 21.0503 41.71 21.2279 42.2716C21.5571 43.3033 22.1289 44.2185 22.7569 45.1004C23.6579 46.3733 24.195 47.7794 24.4202 49.2812C24.6238 50.6415 24.7234 52.0226 24.8404 53.3954C24.8664 53.6991 24.7841 54.0152 24.7148 54.3189C24.6888 54.4188 24.5588 54.5477 24.4592 54.5644C24.3552 54.581 24.208 54.4978 24.1214 54.4187C23.5279 53.8571 23.2854 53.1583 23.333 52.372C23.359 51.9311 23.4543 51.4984 23.4673 51.0616C23.5063 49.6889 23.1554 48.4159 22.1072 47.4549C21.4358 46.8434 20.9247 46.1237 20.3573 45.4457C20.0281 45.0546 19.7076 44.6511 19.2268 44.4182C18.3518 44.0022 17.4855 43.5653 16.5802 43.2201C16.0821 43.0287 15.6403 42.8207 15.2678 42.4463C14.6701 41.8473 13.9121 41.4729 13.1367 41.1484C11.8286 40.6034 11.1269 40.9778 10.9363 42.2882C10.9017 42.5337 10.9017 42.7874 10.8584 43.037C10.6894 44.0437 10.8973 45.0338 10.997 45.9823C10.9147 46.0738 10.8843 46.1362 10.8324 46.157C10.7154 46.2069 10.5855 46.2236 10.4685 46.2818C9.99639 46.5023 9.85779 46.7394 9.97474 47.1596C10.0787 47.5215 10.213 47.8751 10.3429 48.2287C10.4512 48.5199 10.6461 48.8069 10.6634 49.1023C10.7457 50.4252 11.5211 51.2738 12.6126 51.9685C13.0371 52.2389 13.4919 52.5842 13.7215 53.0044C14.3582 54.1733 15.506 54.8139 16.4763 55.6335C16.9831 56.0661 17.6415 56.1784 18.3172 56.1243C18.9062 56.0786 19.4737 55.9247 19.9978 55.6501C20.4526 55.4088 20.9074 55.1592 21.3795 54.9429C21.9946 54.66 22.3454 54.7099 22.7959 55.1467C23.1598 55.5045 23.4976 55.8831 23.8485 56.2575C24.1733 56.5986 24.3379 56.9979 24.2643 57.4639C24.1733 58.0213 24.0824 58.5746 23.9697 59.1279C23.9524 59.2111 23.8138 59.2735 23.6925 59.3816C23.3417 58.845 23.0168 58.3083 22.653 57.7967C22.5534 57.6511 22.3714 57.5387 22.2025 57.4639C22.1072 57.4223 21.9383 57.4472 21.843 57.5055C21.752 57.5637 21.6524 57.7051 21.6611 57.8008C21.6741 57.9839 21.726 58.1752 21.8127 58.3375C22.2501 59.1778 22.4624 60.0555 22.562 60.9499C23.1598 62.7054 22.7873 64.4402 22.0336 66.1208C22.0336 66.1374 22.0336 66.1582 22.0336 66.179C22.0552 66.5243 22.3065 68.5877 23.1728 68.1425C23.2854 68.0843 23.3893 68.0011 23.489 67.9221C23.5279 67.8306 23.5626 67.739 23.5972 67.6475C24.1213 66.3246 24.6498 64.9102 25.4814 63.7246C25.4641 63.6414 25.4424 63.5582 25.4641 63.4875C25.9189 62.0482 26.4127 60.6255 26.6942 59.1362C26.7592 58.7867 27.0321 58.4706 27.2313 58.1544C27.357 57.9547 27.7295 57.8549 27.9244 57.9839C28.4658 58.3541 29.0679 58.5746 29.7003 58.7535C30.35 58.9407 30.9954 58.8949 31.6365 58.7618C32.5417 58.5704 33.0615 57.9714 33.1655 57.0479C33.2001 56.7483 33.0182 56.4239 33.2998 56.1493C35.3919 55.1384 35.3919 55.1384 36.1239 53.3039C36.2798 53.2415 36.4574 53.1666 36.6393 53.1042C36.8212 53.0376 37.0248 53.0168 37.1938 52.9253C37.4753 52.7756 37.7612 52.6175 37.9994 52.4095C38.5279 51.9519 38.5842 51.2364 38.1597 50.7122C37.8305 50.3045 37.432 49.9925 36.8776 49.9218C36.5614 49.8802 36.2452 49.8553 35.8683 49.8137C35.786 49.485 35.734 49.1813 35.6344 48.8943C35.3182 47.9874 34.6815 47.6213 33.6809 47.7253C33.2998 47.7669 32.9706 48.0831 32.5287 47.9167C32.1692 47.3842 31.6668 47.0265 30.9608 46.9516C30.0988 46.8601 29.4101 47.2178 29.0679 47.9708C28.7777 48.6197 28.6261 49.2812 28.7604 49.9884C28.8297 50.3503 28.899 50.7164 28.9726 51.0908C28.3792 51.8479 28.1669 52.684 28.1713 53.5868C28.1756 53.9611 28.115 54.3355 28.0457 54.7058C27.9417 55.2674 27.7165 55.7749 27.2313 56.1867C26.8545 55.5919 26.9931 54.972 26.9845 54.3772C26.9758 53.4994 27.0494 52.6175 26.9628 51.748C26.7592 49.7388 27.4176 48.0581 28.8946 46.6521C29.1242 46.4357 29.3451 46.1986 29.5617 45.9615C29.657 45.8617 29.6093 45.5247 29.4751 45.4498C29.3711 45.3916 29.2282 45.3292 29.1199 45.3417C28.9336 45.3708 28.7214 45.4207 28.5828 45.5289C28.1799 45.8409 27.7901 46.1737 27.4219 46.5231C27.1447 46.7852 26.9152 47.0889 26.6596 47.3676C26.6336 47.3925 26.547 47.3925 26.5037 47.3717C26.4474 47.3426 26.3694 47.2844 26.3694 47.2428C26.3694 46.9391 26.3434 46.6188 26.4084 46.3234C26.7462 44.8841 27.6558 44.2226 29.1978 44.2559C29.3928 44.2601 29.5877 44.2767 29.7826 44.2975C30.7745 44.4057 31.7318 44.2185 32.6804 43.9938C33.6593 43.765 34.5689 43.3282 35.1623 42.5753C35.7081 41.8847 36.2105 41.1526 36.7346 40.437C36.9512 40.1417 37.0551 39.7465 37.1071 39.3846C37.1808 38.8729 37.341 38.4319 37.6659 38.0076C38.3719 37.0841 38.5452 35.9318 39.0043 34.9001C39.1256 34.6297 39.1473 34.2678 39.078 33.9766C38.935 33.3817 39.1126 32.8867 39.3335 32.3459C39.9442 30.8649 39.7623 29.4006 39.1083 27.9696C39.0086 27.7075 38.5625 27.4828 38.3069 27.5785ZM33.3561 14.8947C32.3425 15.5437 31.2336 15.8307 30.0165 15.6518C29.696 15.6061 29.3668 15.5894 29.0462 15.5312C28.9553 15.5146 28.8773 15.3856 28.8167 15.2941C28.795 15.2566 28.834 15.161 28.873 15.1235C29.3581 14.6742 29.9429 14.3622 30.6012 14.329C31.5628 14.2749 32.5417 14.2042 33.4643 14.5702C33.4254 14.695 33.4297 14.849 33.3561 14.8947ZM37.0508 2.30661C37.2284 1.96549 37.5489 1.74085 37.9041 1.58693C37.9821 1.55365 38.19 1.62853 38.2246 1.70341C38.6102 2.52709 38.5495 3.37989 38.3936 4.29508C38.2506 4.52388 38.112 4.8026 37.9171 5.04388C37.7092 5.30596 37.393 5.39332 37.0595 5.36004C36.9512 5.34756 36.7779 5.27268 36.7606 5.1978C36.544 4.20772 36.5657 3.23013 37.0508 2.30661ZM37.9561 6.91588C37.9258 7.66883 37.6399 8.13891 37.0162 8.28451C36.4617 8.41347 35.8683 8.40099 35.2879 8.42595C35.1883 8.43011 35.0367 8.32195 34.9934 8.23043C34.9544 8.14307 34.9804 7.96419 35.0497 7.90179C35.2922 7.69795 35.5391 7.47747 35.825 7.35683C36.4747 7.09059 37.1808 7.06564 37.9561 6.91588ZM35.3832 2.76005C35.4352 2.74341 35.5045 2.79749 35.5824 2.82245C35.5305 3.43397 35.4915 4.05381 35.4222 4.66949C35.3745 5.1354 35.1363 5.489 34.6035 5.73444C34.4173 5.06884 34.4303 4.39908 34.3913 3.73765C34.3696 3.30501 34.7595 2.94309 35.3832 2.76005ZM34.1617 9.74883C35.041 9.65314 35.916 9.44931 36.8083 9.49091C36.9945 10.0691 36.648 10.3562 36.2841 10.6099C36.1325 10.7139 35.9376 10.8013 35.7514 10.8221C34.9847 10.9095 34.218 10.976 33.447 11.0301C33.3474 11.0343 33.2001 10.9386 33.1438 10.8512C33.0918 10.768 33.0875 10.6058 33.1352 10.5267C33.3777 10.144 33.6766 9.80291 34.1617 9.74883ZM32.5894 3.85828C32.702 3.71268 33.0139 3.59621 33.0918 3.68356C33.1698 3.77092 33.2781 3.86661 33.2954 3.96645C33.3691 4.51557 33.447 5.06884 33.4773 5.62212C33.499 6.0506 33.473 6.49155 33.1438 6.84099C33.0399 6.77443 32.8883 6.73284 32.8536 6.64964C32.6457 6.06724 32.4421 5.48484 32.2775 4.88996C32.1649 4.50725 32.3512 4.17028 32.5894 3.85828ZM32.7453 12.353C33.577 12.2573 34.4129 12.1783 35.2489 12.0992C35.4568 12.0784 35.6907 12.2323 35.6734 12.3779C35.6561 12.4986 35.6388 12.6317 35.5651 12.7232C35.4525 12.8647 35.3139 13.0643 35.158 13.0893C34.1401 13.2432 33.1135 13.289 32.1129 12.9687C32.0653 12.952 32.035 12.8896 31.996 12.848C32.1216 12.5069 32.4205 12.3904 32.7453 12.353ZM30.6532 4.84836C30.7788 4.73188 31.082 4.79844 31.121 4.969C31.4372 6.29603 31.7664 7.61891 32.0436 8.95011C32.1043 9.24131 32.0176 9.56579 31.9483 9.8653C31.9137 10.0234 31.7664 10.1607 31.5628 10.4643C31.0864 9.16643 30.7009 8.12227 30.324 7.06979C30.2374 6.83683 30.1594 6.59972 30.1118 6.35844C29.9992 5.76356 30.1984 5.2602 30.6532 4.84836ZM28.743 7.51075C28.756 7.46499 28.8253 7.41508 28.8816 7.39844C28.9293 7.3818 28.9986 7.39843 29.0462 7.42339C29.1026 7.44835 29.1675 7.48995 29.1892 7.53987C29.7826 8.84195 30.311 10.169 30.2331 11.6291C30.2201 11.8746 30.1941 12.1159 30.1724 12.3405C30.0208 12.5069 29.8995 12.6483 29.7653 12.7773C29.722 12.8147 29.631 12.848 29.592 12.8314C29.4924 12.7815 29.3278 12.7024 29.3321 12.6359C29.3971 11.3837 28.9163 10.2064 28.7907 8.98339C28.7344 8.48835 28.5958 8.00579 28.743 7.51075ZM26.9325 10.6599C26.9498 10.4768 27.0061 10.2938 27.0841 10.1232C27.1274 10.0317 27.2487 9.91522 27.344 9.90274C27.4393 9.89026 27.6125 9.97762 27.6472 10.0608C28.154 11.313 28.3229 12.5818 27.8248 13.8714C27.7381 13.9671 27.6688 14.121 27.5735 14.1376C27.4826 14.1543 27.2877 14.0544 27.2703 13.9712C27.0061 12.8896 26.8155 11.7872 26.9325 10.6599ZM12.6343 4.7402C12.6992 4.54053 13.0934 4.4906 13.2927 4.63204C13.6695 4.90244 13.9597 5.24356 14.1286 5.65124C14.4232 6.35428 14.6008 7.08228 14.5488 7.84771C14.5444 7.91011 14.5055 7.96835 14.4838 8.02243C14.3712 8.06403 14.2326 8.17219 14.1589 8.13891C12.6473 7.45667 12.1275 6.28772 12.6343 4.7402ZM12.7859 9.17474C13.5309 9.20387 14.1546 9.43267 14.6571 9.9693C14.8736 10.1981 14.9819 10.5309 14.813 10.6016C14.6484 10.6682 14.4535 10.7389 14.2846 10.7181C13.2147 10.5933 12.9331 10.3021 12.7859 9.17474ZM17.4985 12.4944C17.2863 12.6192 17.0524 12.744 16.8141 12.7939C16.2987 12.9021 15.7962 12.7856 15.2158 12.5901C15.1379 12.5402 14.9733 12.4445 14.8217 12.3322C14.787 12.3072 14.774 12.2323 14.7783 12.1866C14.7827 12.1283 14.8043 12.0368 14.8433 12.016C15.7746 11.5792 16.6842 11.5459 17.5418 12.1907C17.5895 12.224 17.5635 12.457 17.4985 12.4944ZM17.6848 10.6307C17.5808 10.7389 17.4769 10.7139 17.3469 10.6266C16.6755 10.1815 16.316 9.54915 16.1168 8.81283C15.9392 8.15555 16.0475 7.41507 16.2987 7.46499C16.8098 7.56899 16.9571 8.02243 17.165 8.38019C17.5462 9.02499 17.6934 9.74882 17.8364 10.3978C17.7497 10.5351 17.7238 10.5891 17.6848 10.6307ZM19.5386 11.4211C19.3654 11.3754 19.1185 11.313 19.0535 11.1882C18.8239 10.7514 18.8066 10.273 18.8499 9.79459C18.8413 9.79459 18.8283 9.79459 18.8196 9.79043L18.8759 9.68643L18.8543 9.74883C18.8543 9.76546 18.8543 9.77795 18.8499 9.79459C18.9626 9.81538 19.1142 9.81955 19.1531 9.88195C19.3697 10.2563 19.5603 10.6432 19.7422 11.0343C19.8375 11.2339 19.7119 11.4669 19.5386 11.4211ZM19.3481 18.9882C19.3481 18.9424 19.4217 18.8592 19.4607 18.8592C19.5646 18.8592 19.7206 18.855 19.7682 18.9174C20.4353 19.7786 20.8338 20.7229 20.6128 21.8294C20.5565 22.1206 20.6865 22.4534 20.3573 22.7113C20.223 22.6073 20.0238 22.5283 19.9588 22.391C19.439 21.3136 19.3221 20.1613 19.3481 18.9882ZM16.8575 17.0288C16.8661 16.9872 17.0914 16.9248 17.178 16.9622C17.3469 17.0371 17.5462 17.137 17.6285 17.2826C17.8407 17.6611 18.0356 18.0563 18.1526 18.464C18.2522 18.8134 18.3042 19.2086 18.2479 19.5622C18.1569 20.1654 18.4384 20.7894 18.1482 21.3801C18.014 21.3302 17.8624 21.3219 17.8147 21.2512C16.9961 19.9533 16.5759 18.5597 16.8575 17.0288ZM13.3186 15.1194C13.4226 15.0736 13.5699 15.007 13.6478 15.0445C14.6267 15.5312 15.2331 16.2842 15.3934 17.3408C15.4454 17.6986 15.4757 18.0563 15.5147 18.4099C15.5277 18.4099 15.545 18.4099 15.558 18.4099L15.5147 18.4349C15.5147 18.439 15.5147 18.4432 15.5147 18.4432L15.4194 18.489L15.5147 18.4349C15.5147 18.4266 15.5147 18.4182 15.5104 18.4099C15.3328 18.4016 15.1032 18.4349 15.0209 18.3434C14.1979 17.4573 13.5915 16.4506 13.2797 15.2899C13.2667 15.24 13.2883 15.136 13.3186 15.1194ZM12.2574 16.3008C12.8335 16.3424 12.8552 16.8707 13.1021 17.1702C13.3446 17.4614 13.5785 17.7651 13.7605 18.0938C13.9597 18.4598 14.4578 18.6928 14.3235 19.2128C13.925 19.3376 13.5655 19.2003 13.2104 19.0672C12.6949 18.8717 12.383 18.4931 12.2401 17.9814C12.0885 17.4365 12.0798 16.8957 12.2574 16.3008ZM11.5687 20.8227C11.4258 20.7021 11.3825 20.4982 11.5254 20.2445C12.1838 20.311 12.8942 20.3443 13.5872 20.4608C14.0247 20.5357 14.4881 20.6646 14.6311 21.2096C13.8904 21.5507 13.1064 21.4925 12.3484 21.3427C12.0668 21.2886 11.8069 21.0307 11.5687 20.8227ZM13.7301 23.8096C13.1107 23.7305 12.6862 23.3686 12.448 22.8237C12.422 22.7613 12.5476 22.5574 12.5909 22.5616C13.8168 22.6406 15.0209 22.5657 16.2294 22.3245C16.5153 22.2704 16.8488 22.4201 17.0134 22.4493C17.204 22.5574 17.2776 22.5741 17.3123 22.624C17.3772 22.7113 17.4725 22.8195 17.4639 22.911C17.4552 23.015 17.3686 23.1523 17.2733 23.2064C16.1687 23.8221 14.9733 23.9635 13.7301 23.8096ZM15.3198 25.5277C15.2288 25.4653 15.1422 25.3363 15.1422 25.2406C15.1422 25.1408 15.2288 24.9785 15.3155 24.9494C16.3593 24.6166 17.4076 24.288 18.4601 23.9843C18.9019 23.8553 19.3524 23.8304 19.8332 24.2464C18.8413 24.7664 17.9923 25.2073 17.1433 25.6566C16.5023 25.9977 15.8959 25.9312 15.3198 25.5277ZM21.1673 26.2141C20.5132 26.6092 19.8548 27.0003 19.1835 27.3788C18.6507 27.6784 18.0746 27.67 17.5072 27.5244C17.4379 27.4912 17.3729 27.4704 17.3253 27.4288C17.2776 27.3913 17.2213 27.3331 17.217 27.2832C17.2126 27.175 17.1953 27.0003 17.256 26.9628C18.014 26.4928 18.772 26.0185 19.5646 25.5984C20.0238 25.3529 20.5479 25.2822 21.059 25.5193C21.1716 25.5693 21.2929 25.6566 21.3449 25.7564C21.4358 25.9436 21.3362 26.1101 21.1673 26.2141ZM22.1289 24.3629C22.1029 24.4336 21.9513 24.4669 21.8517 24.4918C21.8083 24.496 21.7174 24.4336 21.7087 24.3878C21.5268 23.6765 21.3665 22.9609 21.6567 22.2454C21.6827 22.1747 21.8213 22.1456 21.9036 22.0957C21.9599 22.1456 22.0336 22.1789 22.0466 22.2329C22.2631 22.9318 22.4321 23.6432 22.1289 24.3629ZM12.6343 32.3001C12.6992 32.1004 13.0934 32.0505 13.2927 32.1919C13.6695 32.4623 13.9597 32.8035 14.1286 33.2111C14.4232 33.9142 14.6008 34.6422 14.5488 35.4076C14.5444 35.4659 14.5055 35.5283 14.4838 35.5823C14.3712 35.6239 14.2326 35.7321 14.1589 35.6988C12.6473 35.0166 12.1275 33.8476 12.6343 32.3001ZM12.7859 36.7347C13.5309 36.7638 14.1546 36.9926 14.6571 37.5292C14.8736 37.758 14.9819 38.0908 14.813 38.1615C14.6484 38.2281 14.4535 38.2988 14.2846 38.278C13.2147 38.1532 12.9331 37.862 12.7859 36.7347ZM17.4985 40.0543C17.2863 40.1791 17.0524 40.3039 16.8141 40.3538C16.2987 40.462 15.7962 40.3455 15.2158 40.15C15.1379 40.1001 14.9733 40.0044 14.8217 39.8921C14.787 39.8671 14.774 39.7922 14.7783 39.7465C14.7827 39.6841 14.8043 39.5967 14.8433 39.5759C15.7746 39.1391 16.6842 39.1058 17.5418 39.7506C17.5895 39.7839 17.5635 40.0169 17.4985 40.0543ZM17.6848 38.1865C17.5808 38.2946 17.4769 38.2697 17.3469 38.1823C16.6755 37.7372 16.316 37.1049 16.1168 36.3686C15.9392 35.7113 16.0475 34.9708 16.2987 35.0249C16.8098 35.1289 16.9571 35.5823 17.165 35.9401C17.5462 36.5849 17.6934 37.3087 17.8364 37.9577C17.7497 38.095 17.7238 38.1449 17.6848 38.1865ZM19.5386 38.9769C19.3654 38.9311 19.1185 38.8687 19.0535 38.7439C18.8239 38.3071 18.8066 37.8287 18.8499 37.3503C18.8413 37.3503 18.8283 37.3503 18.8196 37.3462L18.8759 37.2422L18.8543 37.3046C18.8543 37.3212 18.8543 37.3337 18.8499 37.3503C18.9626 37.3711 19.1142 37.3753 19.1531 37.4377C19.3697 37.8121 19.5603 38.199 19.7422 38.59C19.8375 38.7938 19.7119 39.0268 19.5386 38.9769ZM19.3481 46.5481C19.3481 46.5023 19.4217 46.4191 19.4607 46.4191C19.5646 46.4191 19.7206 46.4149 19.7682 46.4773C20.4353 47.3385 20.8338 48.2828 20.6128 49.3893C20.5565 49.6805 20.6865 50.0133 20.3573 50.2712C20.223 50.1672 20.0238 50.0882 19.9588 49.9509C19.439 48.8735 19.3221 47.7212 19.3481 46.5481ZM16.8575 44.5887C16.8661 44.5471 17.0914 44.4847 17.178 44.5222C17.3469 44.597 17.5462 44.6969 17.6285 44.8425C17.8407 45.221 18.0356 45.6162 18.1526 46.0239C18.2522 46.3733 18.3042 46.7685 18.2479 47.1221C18.1569 47.7253 18.4384 48.3493 18.1482 48.9401C18.014 48.8901 17.8624 48.8818 17.8147 48.8111C16.9961 47.5132 16.5759 46.1196 16.8575 44.5887ZM13.3186 42.6793C13.4226 42.6335 13.5699 42.567 13.6478 42.6044C14.6267 43.0911 15.2331 43.8441 15.3934 44.9007C15.4454 45.2585 15.4757 45.6162 15.5147 45.9698C15.5277 45.9698 15.545 45.9698 15.558 45.9698L15.5147 45.9948C15.5147 45.9989 15.5147 46.0031 15.5147 46.0031L15.4194 46.0489L15.5147 45.9948C15.5147 45.9865 15.5147 45.9781 15.5104 45.9698C15.3328 45.9615 15.1032 45.9948 15.0209 45.9033C14.1979 45.0172 13.5915 44.0105 13.2797 42.8498C13.2667 42.7999 13.2883 42.6917 13.3186 42.6793ZM12.2574 43.8607C12.8335 43.9023 12.8552 44.4306 13.1021 44.7301C13.3446 45.0213 13.5785 45.325 13.7605 45.6537C13.9597 46.0197 14.4578 46.2527 14.3235 46.7727C13.925 46.8975 13.5655 46.7602 13.2104 46.6271C12.6949 46.4316 12.383 46.053 12.2401 45.5413C12.0885 44.9964 12.0798 44.4514 12.2574 43.8607ZM11.5687 48.3826C11.4258 48.262 11.3825 48.0581 11.5254 47.8044C12.1838 47.8709 12.8942 47.9042 13.5872 48.0207C14.0247 48.0956 14.4881 48.2245 14.6311 48.7695C13.8904 49.1106 13.1064 49.0524 12.3484 48.9026C12.0668 48.8485 11.8069 48.5906 11.5687 48.3826ZM13.7301 51.3695C13.1107 51.2904 12.6862 50.9285 12.448 50.3836C12.422 50.3212 12.5476 50.1173 12.5909 50.1215C13.8168 50.2005 15.0209 50.1256 16.2294 49.8844C16.5153 49.8303 16.8488 49.9801 17.0134 50.0092C17.204 50.1173 17.2776 50.134 17.3123 50.1839C17.3772 50.2712 17.4725 50.3794 17.4639 50.4709C17.4552 50.5749 17.3686 50.7122 17.2733 50.7663C16.1687 51.382 14.9733 51.5234 13.7301 51.3695ZM15.3198 53.0876C15.2288 53.0252 15.1422 52.8962 15.1422 52.8005C15.1422 52.7007 15.2288 52.5384 15.3155 52.5093C16.3593 52.1765 17.4076 51.8479 18.4601 51.5442C18.9019 51.4152 19.3524 51.3903 19.8332 51.8063C18.8413 52.3263 17.9923 52.7672 17.1433 53.2165C16.5023 53.5535 15.8959 53.4911 15.3198 53.0876ZM21.1673 53.7698C20.5132 54.165 19.8548 54.556 19.1835 54.9346C18.6507 55.2341 18.0746 55.2258 17.5072 55.0802C17.4379 55.0469 17.3729 55.0261 17.3253 54.9845C17.2776 54.9471 17.2213 54.8888 17.217 54.8389C17.2126 54.7308 17.1953 54.556 17.256 54.5186C18.014 54.0485 18.772 53.5743 19.5646 53.1541C20.0238 52.9087 20.5479 52.838 21.059 53.0751C21.1716 53.125 21.2929 53.2124 21.3449 53.3122C21.4358 53.5036 21.3362 53.67 21.1673 53.7698ZM22.1289 51.9228C22.1029 51.9935 21.9513 52.0309 21.8517 52.0517C21.8083 52.0559 21.7174 51.9935 21.7087 51.9477C21.5268 51.2364 21.3665 50.5208 21.6567 49.8053C21.6827 49.7346 21.8213 49.7055 21.9036 49.6556C21.9599 49.7055 22.0336 49.7388 22.0466 49.7928C22.2631 50.4917 22.4321 51.2031 22.1289 51.9228ZM34.9674 51.798C35.3615 51.3903 35.8207 51.0616 36.4228 51.0325C36.596 51.0242 36.7909 51.0908 36.9425 51.174C37.0162 51.2156 37.0162 51.382 37.0465 51.4818C37.0248 51.5484 37.0292 51.6232 36.9902 51.6524C36.4487 52.1266 35.8207 52.3471 35.0887 52.2556C35.0453 52.2514 34.9847 52.1807 34.976 52.1308C34.9544 52.0226 34.9067 51.8562 34.9674 51.798ZM32.4031 51.0866C32.5981 50.7205 32.8536 50.0799 33.382 49.5973C33.5163 49.4725 33.6809 49.3644 33.8542 49.2895C33.9581 49.2437 34.1271 49.2396 34.2137 49.2937C34.296 49.3436 34.348 49.5017 34.3393 49.6057C34.296 50.0508 34.0578 50.421 33.8022 50.7829C33.5856 51.0908 33.395 51.4152 33.1785 51.7231C32.9272 52.0808 32.5417 52.2264 32.3945 52.0268C32.2429 51.8104 32.2082 51.5775 32.4031 51.0866ZM33.7546 53.2332C34.0794 53.1708 34.4779 53.3455 34.5689 53.5826C34.6598 53.8239 34.5212 54.2274 34.2917 54.4063C34.192 54.4811 34.0967 54.5685 33.9841 54.6309C33.3647 54.972 32.7107 55.2258 32.0003 55.3132C31.7577 55.3423 31.4979 55.2674 31.2726 55.2424C31.2033 55.0927 31.1427 54.9928 31.1167 54.8847C31.1037 54.8348 31.134 54.7599 31.173 54.7141C31.8184 53.8738 32.7107 53.437 33.7546 53.2332ZM30.1291 48.6281C30.2764 48.2079 30.7355 47.95 31.1817 48.0332C31.5628 48.1039 31.8487 48.6239 31.7448 49.0607C31.7274 49.1189 31.7058 49.1772 31.6365 49.4143C31.5758 49.5224 31.4415 49.8012 31.277 50.0632C31.134 50.2962 30.8871 50.3669 30.6229 50.3253C30.3587 50.2837 30.1551 50.1589 30.0728 49.8885C29.9342 49.4601 29.9818 49.0441 30.1291 48.6281ZM29.4231 52.3887C29.553 51.9436 29.8822 51.6732 30.337 51.5317C30.5536 51.4652 30.8871 51.6648 30.9001 51.8895C30.9131 52.0684 30.9434 52.2639 30.8871 52.4261C30.6662 53.0709 30.3154 53.6492 29.7566 54.086C29.6656 54.1567 29.5227 54.1567 29.3884 54.1941C29.2238 53.5868 29.2498 52.9794 29.4231 52.3887ZM29.0592 56.7442C29.9818 56.3074 30.9261 56.2117 31.8704 56.6735C32.048 56.7608 32.1866 56.9355 32.1129 57.1311C32.048 57.2891 31.918 57.493 31.7707 57.5387C30.9304 57.805 30.1031 57.6677 29.3668 57.4264C29.2238 57.3682 29.1502 57.3599 29.1069 57.3183C29.0246 57.2351 28.912 57.1394 28.9033 57.0395C28.899 56.948 28.9726 56.7858 29.0592 56.7442ZM35.3832 30.32C35.4352 30.3033 35.5045 30.3574 35.5824 30.3824C35.5305 30.9939 35.4915 31.6137 35.4222 32.2294C35.3745 32.6953 35.1363 33.0489 34.6035 33.2943C34.4173 32.6287 34.4303 31.959 34.3913 31.2976C34.3696 30.8649 34.7595 30.503 35.3832 30.32ZM33.0918 31.2435C33.1698 31.3308 33.2781 31.4265 33.2954 31.5264C33.3691 32.0755 33.447 32.6287 33.4773 33.182C33.499 33.6105 33.473 34.0515 33.1438 34.4009C33.0399 34.3343 32.8883 34.2927 32.8536 34.2095C32.6457 33.6271 32.4421 33.0447 32.2775 32.4499C32.1692 32.0672 32.3555 31.7302 32.5937 31.4182C32.702 31.2767 33.0139 31.1561 33.0918 31.2435ZM34.9674 24.2381C35.3615 23.8304 35.8207 23.5017 36.4228 23.4726C36.596 23.4643 36.7909 23.5309 36.9425 23.6141C37.0162 23.6557 37.0162 23.8221 37.0465 23.9219C37.0248 23.9885 37.0292 24.0633 36.9902 24.0925C36.4487 24.5667 35.8207 24.7872 35.0887 24.6957C35.0453 24.6915 34.9847 24.6208 34.976 24.5709C34.9544 24.4627 34.9067 24.3005 34.9674 24.2381ZM32.4031 23.5267C32.5981 23.1606 32.8536 22.52 33.382 22.0374C33.5163 21.9126 33.6809 21.8045 33.8542 21.7296C33.9581 21.6838 34.1271 21.6797 34.2137 21.7337C34.296 21.7837 34.348 21.9417 34.3393 22.0457C34.296 22.4909 34.0578 22.8611 33.8022 23.223C33.5856 23.5309 33.395 23.8553 33.1785 24.1632C32.9272 24.5209 32.5417 24.6665 32.3945 24.4669C32.2429 24.2505 32.2082 24.0176 32.4031 23.5267ZM33.7546 25.6733C34.0794 25.6109 34.4779 25.7856 34.5689 26.0227C34.6598 26.264 34.5212 26.6675 34.2917 26.8464C34.192 26.9212 34.0967 27.0086 33.9841 27.071C33.3647 27.4121 32.7107 27.6659 32.0003 27.7532C31.7577 27.7824 31.4979 27.7075 31.2726 27.6825C31.2033 27.5328 31.1427 27.4329 31.1167 27.3248C31.1037 27.2748 31.134 27.2 31.173 27.1542C31.8184 26.318 32.7107 25.8771 33.7546 25.6733ZM30.1291 21.0681C30.2764 20.648 30.7355 20.3901 31.1817 20.4733C31.5628 20.544 31.8487 21.064 31.7448 21.5008C31.7274 21.559 31.7058 21.6173 31.6365 21.8544C31.5758 21.9625 31.4415 22.2413 31.277 22.5033C31.134 22.7363 30.8871 22.807 30.6229 22.7654C30.3587 22.7238 30.1551 22.599 30.0728 22.3286C29.9342 21.9043 29.9818 21.4841 30.1291 21.0681ZM29.4231 24.8288C29.553 24.3837 29.8822 24.1133 30.337 23.9718C30.5536 23.9053 30.8871 24.1049 30.9001 24.3296C30.9131 24.5085 30.9434 24.704 30.8871 24.8662C30.6662 25.511 30.3154 26.0893 29.7566 26.526C29.6656 26.5968 29.5227 26.5968 29.3884 26.6342C29.2238 26.0268 29.2498 25.4237 29.4231 24.8288ZM29.0592 29.1843C29.9818 28.7475 30.9261 28.6518 31.8704 29.1136C32.048 29.2009 32.1866 29.3756 32.1129 29.5712C32.048 29.7292 31.918 29.9331 31.7707 29.9788C30.9304 30.2451 30.1031 30.1078 29.3668 29.8665C29.2238 29.8083 29.1502 29.8 29.1069 29.7584C29.0246 29.6752 28.912 29.5795 28.9033 29.4796C28.899 29.3881 28.9726 29.2259 29.0592 29.1843ZM31.9527 37.4252C31.918 37.5833 31.7707 37.7206 31.5672 38.0243C31.0907 36.7263 30.7052 35.6822 30.3284 34.6297C30.2417 34.3967 30.1638 34.1596 30.1161 33.9183C29.9948 33.3235 30.1941 32.8201 30.6532 32.4083C30.7788 32.2918 31.082 32.3583 31.121 32.5289C31.4372 33.8559 31.7664 35.1788 32.0436 36.51C32.1086 36.8012 32.022 37.1257 31.9527 37.4252ZM25.776 40.254C25.8409 40.5618 25.9492 40.8655 25.9796 41.1734C26.0359 41.7308 26.0835 42.2966 26.0662 42.8582C26.0532 43.4322 25.8063 43.9481 25.5334 44.4556C25.4598 44.5929 25.3818 44.6594 25.0396 44.5762C24.6888 44.231 24.5068 43.6194 24.1906 43.0911C23.7185 42.309 23.5409 41.4562 23.5409 40.566C23.5409 40.4454 23.5496 40.3206 23.5583 40.1958C23.5713 40.1583 23.5886 40.1209 23.6016 40.0876C24.0001 39.0809 24.4029 38.0242 24.94 37.0508C25.2259 36.2438 25.5464 35.4409 25.7976 34.6214C25.828 34.5299 25.8799 34.4675 25.9449 34.4175C26.2394 33.4815 26.5123 32.5414 26.6986 31.5721C26.7636 31.2227 27.0364 30.9065 27.2357 30.5904C27.3613 30.3907 27.7338 30.2908 27.9287 30.4198C28.4702 30.79 29.0722 31.0105 29.7046 31.1894C30.0078 31.2768 30.3067 31.31 30.6056 31.31C30.5796 31.3225 30.5579 31.3392 30.5319 31.3516C29.3451 31.9756 28.5135 32.9283 27.9114 34.0515C27.5822 34.6671 27.2357 35.2537 26.7982 35.807C25.7543 37.1298 25.4381 38.6316 25.776 40.254ZM27.8248 41.4354C27.7381 41.5311 27.6688 41.685 27.5735 41.7017C27.4826 41.7183 27.2877 41.6185 27.2703 41.5353C27.0061 40.4454 26.8155 39.343 26.9325 38.2198C26.9498 38.0367 27.0061 37.8537 27.0841 37.6831C27.1274 37.5916 27.2487 37.4751 27.344 37.4627C27.4393 37.4502 27.6125 37.5375 27.6472 37.6207C28.154 38.8729 28.3229 40.1417 27.8248 41.4354ZM28.743 35.0707C28.756 35.0249 28.8253 34.975 28.8816 34.9583C28.9293 34.9417 28.9986 34.9583 29.0462 34.9833C29.1026 35.0083 29.1675 35.0499 29.1892 35.0998C29.7826 36.4018 30.311 37.7289 30.2331 39.189C30.2201 39.4345 30.1941 39.6758 30.1724 39.9004C30.0208 40.0668 29.8995 40.2082 29.7653 40.3372C29.722 40.3746 29.631 40.4079 29.592 40.3913C29.4924 40.3414 29.3278 40.2623 29.3321 40.1958C29.3971 38.9436 28.9163 37.7663 28.7907 36.5433C28.7344 36.0482 28.5958 35.5657 28.743 35.0707ZM33.3561 42.4546C32.3425 43.1036 31.2336 43.3906 30.0165 43.2117C29.696 43.166 29.3668 43.1494 29.0462 43.0911C28.9553 43.0745 28.8773 42.9455 28.8167 42.854C28.795 42.8166 28.834 42.7209 28.873 42.6834C29.3581 42.2342 29.9429 41.9222 30.6012 41.8889C31.5628 41.8348 32.5417 41.7641 33.4643 42.1302C33.4254 42.2508 33.4297 42.4089 33.3561 42.4546ZM35.5608 40.279C35.4482 40.4204 35.3096 40.6201 35.1536 40.645C34.1357 40.799 33.1092 40.8447 32.1086 40.5244C32.0609 40.5078 32.0306 40.4454 31.9916 40.4038C32.1216 40.0668 32.4205 39.9503 32.7453 39.9129C33.577 39.8172 34.4129 39.7382 35.2489 39.6591C35.4568 39.6383 35.6907 39.7922 35.6734 39.9378C35.6517 40.0502 35.6344 40.1874 35.5608 40.279ZM36.2885 38.1698C36.1369 38.2738 35.942 38.3612 35.7557 38.382C34.989 38.4694 34.2224 38.5359 33.4514 38.59C33.3517 38.5942 33.2045 38.4985 33.1482 38.4111C33.0962 38.3279 33.0918 38.1657 33.1395 38.0867C33.3777 37.7081 33.6809 37.3628 34.166 37.3087C35.0453 37.2131 35.9203 37.0092 36.8126 37.0508C36.9988 37.629 36.6523 37.9119 36.2885 38.1698ZM37.0162 35.8444C36.4617 35.9734 35.8683 35.9609 35.2879 35.9859C35.1883 35.99 35.0367 35.8819 34.9934 35.7903C34.9544 35.703 34.9804 35.5241 35.0497 35.4617C35.2922 35.2579 35.5391 35.0374 35.825 34.9167C36.4747 34.6463 37.1808 34.6214 37.9561 34.4758C37.9258 35.2287 37.6399 35.6988 37.0162 35.8444ZM38.3936 31.8508C38.2506 32.0796 38.112 32.3583 37.9171 32.5996C37.7092 32.8617 37.393 32.9491 37.0595 32.9158C36.9512 32.9033 36.7779 32.8284 36.7606 32.7535C36.544 31.7635 36.57 30.79 37.0508 29.8665C37.2284 29.5254 37.5489 29.3008 37.9041 29.1468C37.9821 29.1136 38.19 29.1884 38.2246 29.2633C38.6102 30.0828 38.5495 30.9398 38.3936 31.8508Z" fill="#B2422A"/>
<defs>
<clipPath id="clip0">
<rect width="74" height="49.359" fill="white" transform="translate(0 20.641)"/>
</clipPath>
</defs>
</svg>
